<?xml version="1.0" encoding="utf-8"?>
<!-- Generator: Adobe Illustrator 21.0.2, SVG Export Plug-In . SVG Version: 6.00 Build 0)  -->
<svg version="1.1" xmlns="http://www.w3.org/2000/svg" xmlns:xlink="http://www.w3.org/1999/xlink" x="0px" y="0px"
	 viewBox="0 0 1008 612" style="enable-background:new 0 0 1008 612;" xml:space="preserve">
<style type="text/css">
	.st0{fill-rule:evenodd;clip-rule:evenodd;fill:#959595;}
	.st1{fill-rule:evenodd;clip-rule:evenodd;fill:#3E8EDE;}
	.st2{fill-rule:evenodd;clip-rule:evenodd;fill:none;}
	.st3{fill:#FFFFFF;}
	.st4{font-family:'Arial-Black';}
	.st5{font-size:7.3734px;}
	.st6{font-size:11.0601px;}
	.st7{fill:#3E8EDE;stroke:#FFFFFF;stroke-miterlimit:10;}
	.st8{fill:#3E8EDE;}
	.st9{fill-rule:evenodd;clip-rule:evenodd;fill:#00B09A;}
	.st10{fill-rule:evenodd;clip-rule:evenodd;fill:#655D20;}
	.st11{fill-rule:evenodd;clip-rule:evenodd;fill:#EC008C;}
	.st12{fill-rule:evenodd;clip-rule:evenodd;fill:#58595B;}
	.st13{fill-rule:evenodd;clip-rule:evenodd;fill:#F7A800;}
	.st14{fill-rule:evenodd;clip-rule:evenodd;fill:#DD2397;}
	.st15{fill-rule:evenodd;clip-rule:evenodd;fill:#ED2224;}
	.st16{fill-rule:evenodd;clip-rule:evenodd;fill:#001689;}
	.st17{fill:#FFFFFF;stroke:#FFFFFF;stroke-miterlimit:10;}
	.st18{fill:#001689;}
	.st19{fill-rule:evenodd;clip-rule:evenodd;fill:#60295E;}
	.st20{fill-rule:evenodd;clip-rule:evenodd;fill:#8DC63F;}
	.st21{fill-rule:evenodd;clip-rule:evenodd;fill:#33006F;}
	.st22{fill-rule:evenodd;clip-rule:evenodd;fill:#683817;}
	.st23{fill-rule:evenodd;clip-rule:evenodd;fill:#FF5000;}
	.st24{font-size:5px;}
</style>
<g id="Layer_1">
	<line class="st0" x1="877.3" y1="204.2" x2="876.6" y2="203.8"/>
	<line class="st0" x1="876.6" y1="203.8" x2="876" y2="204.2"/>
	<line class="st0" x1="647.4" y1="155.9" x2="648.1" y2="156.2"/>
	<line class="st0" x1="648.1" y1="156.2" x2="648.8" y2="155.9"/>
	<line class="st0" x1="926.6" y1="177.4" x2="926.9" y2="178"/>
	<line class="st0" x1="861.2" y1="291.3" x2="860.5" y2="291"/>
	<line class="st0" x1="860.5" y1="291" x2="859.9" y2="291.3"/>
	<line class="st0" x1="633.3" y1="346.9" x2="633.7" y2="346.2"/>
	<line class="st0" x1="633.7" y1="346.2" x2="633.3" y2="345.6"/>
	<path class="st0" d="M650.1,314.7c1.1-0.2,1.2,0.6,2,0.7C652.4,316.7,649.1,316.4,650.1,314.7z"/>
	<line class="st0" x1="658.1" y1="137.1" x2="658.1" y2="136.5"/>
	<path class="st0" d="M657.1,138.2c0.5-0.7,0.7-1.2,1-1.7"/>
	<line class="st0" x1="658.1" y1="136.5" x2="657.5" y2="136.5"/>
	<line class="st0" x1="672.2" y1="151.9" x2="672.2" y2="152.6"/>
	<path class="st0" d="M672.2,152.6c0.2-0.4,0.3-1.1,0.3-1.7"/>
	<line class="st0" x1="672.2" y1="152.6" x2="672.9" y2="152.6"/>
	<line class="st0" x1="870.6" y1="250.4" x2="869.9" y2="250.1"/>
	<line class="st0" x1="869.9" y1="250.1" x2="869.3" y2="250.4"/>
	<line class="st0" x1="626.6" y1="355" x2="626.6" y2="354.3"/>
	<line class="st0" x1="625" y1="355.3" x2="625.3" y2="355"/>
	<line class="st0" x1="625.3" y1="355" x2="625" y2="355.3"/>
	<line class="st0" x1="626.6" y1="354.3" x2="626" y2="354.3"/>
	<line class="st0" x1="840.1" y1="280.9" x2="839.8" y2="280.6"/>
	<line class="st0" x1="851.2" y1="292.6" x2="851.5" y2="293.3"/>
	<line class="st0" x1="851.5" y1="293.3" x2="851.8" y2="294"/>
	<line class="st0" x1="851.8" y1="301.3" x2="851.8" y2="300.7"/>
	<line class="st0" x1="737.2" y1="332.8" x2="737.6" y2="332.2"/>
	<path class="st0" d="M750.6,317.4c0.4-0.4,1.1-1.1,1.7-1.7"/>
	<path class="st0" d="M751.3,317.4c1.8,2.7,0.2,0,1.3-1.3"/>
	<line class="st0" x1="752.6" y1="316.1" x2="752.3" y2="315.8"/>
	<line class="st0" x1="750.6" y1="317.4" x2="751.3" y2="317.4"/>
	<path class="st0" d="M851.5,246.7"/>
	<line class="st0" x1="843.8" y1="269.2" x2="843.1" y2="268.8"/>
	<line class="st0" x1="843.1" y1="268.8" x2="842.4" y2="269.2"/>
	<path class="st0" d="M851.5,246.7"/>
	<line class="st0" x1="796.9" y1="417.3" x2="796.2" y2="417.3"/>
	<line class="st0" x1="796.2" y1="417.3" x2="796.2" y2="418"/>
	<line class="st0" x1="680.9" y1="479.6" x2="680.3" y2="479.3"/>
	<line class="st0" x1="667.5" y1="312.1" x2="667.2" y2="311.7"/>
	<path class="st0" d="M667.2,313.1c0-0.4,0-0.9,0-1.3"/>
	<line class="st0" x1="667.2" y1="311.7" x2="666.9" y2="312.1"/>
	<path class="st0" d="M833.7,263.8C835.3,261.7,836.4,266.2,833.7,263.8L833.7,263.8z"/>
	<g>
		<path class="st1" d="M880,206.7c0.3,1.5-0.7,3.5-2.2,3.5c-2.8,2.5-3.1-6.4-3.2-4c-7.1-1.6-13-4.5-19.4-6.7c-1.7-1-1.4-4.5-2.7-6
			c-0.8-1-1.8-0.5-3.4-1.3c-0.9-0.5-1.6-1.9-2-2c-1.5-0.2-5.5,1.3-8.7,2c-2.7,0.6-6.2,1.5-8.7,2c-16.1,3.6-37.2,8.1-53.6,10.1
			c0.8-1-0.8-2.2-0.7-3.4c0.3-2,1.7-2.1,3.4-4c1.1-1.3,1.8-2.9,2.7-4c1-1.3,2.5-2.2,3.4-3.3c0.4-0.6,0.2-0.9,0.7-1.3
			c0.3-0.3,1.4-1.7,2-2.7c0.3-2.8-2-3-1.3-6c-1.2-0.8-3-1-3.3-2.7c-0.6-2.8,3.7-2.8,6-4c2-1,7.7-3.4,12.7-2.7c1.6,0.2,2.6,1.3,4,1.3
			c3-1,5.3-2.7,10.1-2c2.4-1.9,4.3-4.1,6-6.7c1-1,2.6-1.4,4-2c0.3-3-0.5-4.9-1.3-6.7c-0.2-2.4,2-2.5,2-4.7c-2.8,1.9-1.7-3.2-4,0
			c-1.4-3,4.3-6.1,6-8.7c-0.6-2.2,0.5-3.4,1.3-4.7c0.6-1,1.2-2,2-3.4c2.4-4.2,6.4-8.3,11.4-9.4c5.8-1.3,13.6-2.2,18.8-4.7
			c1.6,0.9,0.2,2,0.7,3.4c0.3,0.9,1.1,1.1,1.3,2c0.2,0.8-0.3,1.9,0,2.7c0.8,2.3,2.6,3.7,2.7,7.4c0,1.6-0.9,2.5-0.7,4
			c0.6,3.5,3.6,7,2.7,11.4c1.7,1.8,1-1.8,2.7,0c1.9,4.1,2.5,9.3,3.4,15.4c0.1,0.8,1.5,1.2,1.3,2c-0.7,3.3-1.2,9-0.7,14.1
			c0.1,1.2,1,2,1.3,3.4c0.9,3.6,0.9,8.6,2,12.7c1.2,4.5,1.6,4.2-1.3,7.4L880,206.7z"/>
		<path class="st1" d="M858.5,268.5c-0.5-9.8-7.1-19.6-6-29.5c1.9,0.6,1.7-0.9,3.3-0.7c0.4,1.9-1.3,3-1.3,4.7c0,3.2,2.5,5.9,4.7,7.4
			c0.3,2.6,0.9,3.8,2.7,6c1.7,2.1,1.8,3.5,5.4,3.3c-0.2,1.6-1.1,2.5-0.7,4.7c0.1,1.1,3.2-1.1,2.7,2
			C865.3,266.8,862.6,268.3,858.5,268.5z"/>
		<path class="st1" d="M859.9,201.5c-1.9,3-2.1,7.7-4.7,10.1c-0.3,2.1,1.4,1.1,1.3,3.4c0,0.9-1.5,2.1-1.3,2.7c0.4,1.9,1.2,2.8,2.7,4
			c0.5,0.4,0.3,0.9,0.7,1.3c0.6,0.6,1.2,0.8,2,1.3c1.2,0.8,2.5,2.9,4.7,3.4c-0.2,2.2-2,2.9-3.4,4c-1.2,1.3-1.5,3.4-2.7,4.7
			c-1.1,0-1.7,0.5-2,1.3c-1.3,0-2.7,0-4,0c-1.3,0.9-2,2.5-2.7,4c-25.5,5.4-51.4,10.3-77.1,15.4c-2.3-8.9-4.7-24.3-6.7-36.2
			c-0.7-4.5-2.6-9.9-2-12.1c0.3-1,0.9-1.8,2-2.7c0.5-0.4,1.4-0.2,2-0.7c1.3-1,3.7-4.3,6-4.7c0.2,1.6,1.1,2.5,0.7,4.7
			c15.3-2.3,33-5.9,49.6-9.4c1.5-0.3,2.6-1,4-1.3c2.7-0.6,6.2-0.6,9.4-1.3c3.3-0.7,5.9-2.4,8-2c1.9,0.3,2.8,3.1,4.7,2
			C853,197.2,853.9,201.9,859.9,201.5z"/>
		<path class="st1" d="M869.3,250.4c0-0.2,0-0.4,0-0.7c-1.4,0.4-4.4-0.8-4.7,0.7c-3.1-2.7-11.6-4.6-6.7-12.1c1.9-0.2,1.8-0.9,4-2
			c-0.6-3,1.6-3.3,2-5.4c1.1-0.2,1.2,0.6,2,0.7c-1.5-1.4,0.1-2.2,0.7-3.4c0.1-1.7-1.8-0.7-2.7-2c-1.5-2.1,0.9-1.2-1.3-2
			c-0.3-0.1-1.7-0.4-2-0.7c-0.6-0.5-0.2-1.4-0.7-2c-0.9-1.3-2.9-1-3.4-2.7c0.1-2.9,2.6-4.7,0-6.7c0.2-2,2-3.1,2.7-4.7
			c0.7-1.7-0.2-3.7,1.3-4.7c0.8,0.1,0.4,0.7,0,0.7c2.2,0.4,2.5-0.2,5.4,0.7c-0.1,0,1.9,0.6,2,0.7c0.1,0.1-0.1,1.3,0,1.3
			c0.3,0.1,1.2-0.8,2-0.7c0.6,0.1,3.3,1.8,4.7,2c0.6,6-4.1,6.6-2.7,13.4c2.1,0.3,2.4-1.2,4.7-0.7c1.8,2.4,0.1,6,0,8.7
			c-0.1,2.7,1.3,5.4-0.7,6.7c0.9,0.3,1.7,0.5,0.7,2.7c-0.1,0.3-1.5,0.9-2,2c-0.9,2,0,4.7-2.7,5.4c0.6,2.7,0.1,2.3,0,5.4
			c-0.5-0.1-0.7-0.7-1.3-0.7"/>
		<path class="st1" d="M842.4,269.2c-0.7,0-0.5-0.8-0.7-1.3c-2.4,5.6,5.3,6.7,7.4,10.1c-1.9,0.5-8.3-0.2-8.7-3.4
			c-0.8,0.1-0.6,1.2-0.7,2c-1.7-0.6-2.1-2.3-3.4-3.3c-1.8-0.2-2.2,0.9-2,2.7c-3.5-3.3,2.4-7.5,2-12.1c-0.7-2.4-2.7-0.4-4-0.7
			c-1.4-0.3-1.9-1.6-3.4-2c-1.1-0.3-2.4,1-3.4,0c0.5-3.4-1.4-4.4-4.7-4c-0.9-2-2.7-2.3-2.9-5c-0.8-0.6-2.9-0.9-4-1
			c-1.1-0.1-2.7-0.7-3.1,0.2c-0.4,0.9-2.1,0.7-2.7,1.3c-0.6,0.7-1.7,3-2.7,2.8c-1-0.2-2.8-1.5-3.2-1.3c-0.4,0.1-0.7,0.3-1.1,1.3
			c-0.4,1-1.5,2.7-2.7,2.8c-1.2,0.1-1.9,0.4-2.2,1.2c-0.3,0.8-0.9,2.2-1.7,2.9c-0.8,0.7-2,1-2.6,2.6l-1.8-10.3l30-5.6
			c4.1-0.8,11-2.3,16.1-3.4c3.5-0.7,9.6-2.7,14.7-3.3c-0.6,1.9,0.9,1.7,0.7,3.3l0.1,0.4c2.3,7.6,4,16.5,6.6,23.7
			c3.1-0.7,8.3-3.4,10.7-0.7c-1.3,2.5-2.8,4.8-3.4,8c-3,0.3-4.1,2.6-7.4,2.7c0.3-1,1-1.7,1.3-2.7c-0.2-0.6-3-1.8-2.7-0.7
			c-2,0.3,0.7-1.6,0.7-2c0-0.8-2.5-1.5-1.3-3.4c-1.2-0.4-0.8,1.7-1.3,2c-0.3,0.2-1.8-2.7-2,0.7c-1.2-0.6-2-1.6-3.4-2
			c-0.5-2.1,1.2-2,0.7-4c2.1,0.7,1.8,0.3,3.4-0.7c0.1-1.5-2.4-0.3-3.4-0.7c0.1-2-2.6-4.1,0-4.7c-0.1-1.2-2.3-0.4-2.7-1.3
			c-0.4-1,1.5-2.3,0.7-4c-0.3-0.6-1.4-0.8-1.3,0c-0.4-4.1-0.6-5.3,4.7-6.7c-2.1-0.9-2.5-1.3-1.2-3.3l-0.1-0.7c-1-1.1-2.6,0.2-4,0.7
			c-0.3,1.6,1.2,1.5,0.7,3.3c-1.1,0.2-1.3-0.5-1.3-1.3c-2,1.3-1.1,2.9-3.4,2.7c-0.1,1.8,1.1,1.3,0,2.7c-0.5-0.4-1.1-0.7-2-0.7
			c0.7,0.8,0.6,1.4-0.7,1.3c-0.3,2.1,1.7,1.9,2.7,2.7c-1.2,4,1,7.7,1.3,12.1"/>
		<path class="st1" d="M859.9,291.3c-0.1-2.7,1-6.4,2.7-8c0.2-1.3-0.1-2.1-1.3-2c0.6-1.7,2.3-2.1,3.4-3.4c3.6,1-2.2,6.3,0,9.4
			c-1.2,1.3-2.4,2.5-3.4,4"/>
	</g>
	<rect x="841.7" y="162.8" class="st2" width="25.6" height="19.4"/>
	<text transform="matrix(0.8 0 0 1 842.0225 168.0918)" class="st3 st4 st5">Eastern</text>
	<text transform="matrix(1 0 0 1 845.5664 177.3086)" class="st3 st4 st6">NY</text>
	<rect x="813.2" y="215.6" class="st2" width="42.9" height="19.4"/>
	<text transform="matrix(0.8 0 0 1 822.2246 220.8516)" class="st3 st4 st5">Eastern</text>
	<text transform="matrix(1 0 0 1 826.3809 230.0684)" class="st3 st4 st6">PA</text>
	<rect x="824.4" y="249.2" class="st2" width="25.6" height="19.4"/>
	<text transform="matrix(0.8 0 0 1 824.3662 257.0908)" class="st3 st4 st6">MD</text>
	
		<rect x="862.8" y="234.1" transform="matrix(2.285603e-03 -1 1 2.285603e-03 623.5327 1118.835)" class="st2" width="19.4" height="25.6"/>
	<text transform="matrix(0.8 0 0 1 859.6641 245.1475)" class="st3 st4 st6">NJ</text>
	<rect x="862.1" y="253.8" class="st2" width="25.6" height="19.4"/>
	<text transform="matrix(0.8 0 0 1 862.1104 261.7188)" class="st7 st4 st6">DE</text>
	<rect x="862.2" y="253.7" class="st2" width="25.6" height="19.4"/>
	<text transform="matrix(0.8 0 0 1 862.2432 261.6084)" class="st8 st4 st6">DE</text>
	<g>
		<path class="st9" d="M815.6,169.2c-4.7-0.7-7.1,1-10.1,2c-1.5-0.1-2.5-1.1-4-1.3c-5.1-0.7-10.7,1.7-12.7,2.7c-2.4,1.2-6.6,1.2-6,4
			c0.3,1.7,2.1,1.9,3.3,2.7c-0.6,3.1,1.7,3.2,1.3,6c-0.7,1-1.7,2.3-2,2.7c-0.5,0.5-0.2,0.8-0.7,1.3c-0.9,1.2-2.3,2.1-3.4,3.3
			c-0.9,1.1-1.6,2.7-2.7,4c-1.6,1.9-3.1,2-3.4,4c-0.1,1.2,1.5,2.4,0.7,3.4c13.7-1.6,38.9-6.7,53.5-9.8l-2-3.5l-0.2-3.9v-4.9
			l-4.9,1.2L815.6,169.2z"/>
		<path class="st9" d="M811.3,249.9c-15.6,3.1-22.3,4-37.9,7.1c-2.3-8.9-4.7-24.3-6.7-36.2c-0.7-4.5-2.6-9.9-2-12.1
			c0.3-1,0.9-1.8,2-2.7c0.5-0.4,1.4-0.2,2-0.7c1.3-1,3.7-4.3,6-4.7c0.2,1.6,0.6,2.8,0.7,4.7c11-1.7,14.2-1.8,26.4-4.3L811.3,249.9z"
			/>
		<path class="st9" d="M792.9,264.5c2.7-0.7,3.3-3.4,4.7-5.4c2.1,0,4.2-0.9,4.7-4c1.3,0.3,1.7,1.4,3.3,1.3c1.9-0.1,2.3-2.4,3.4-3.4
			c1-0.8,3,0,2.7-2c1.3,1.2,4.1,0.5,5.4,1.3c0.2,0.1-0.2,1.1,0,1.3c0.2,0.2,1.2-0.2,1.3,0c0.4,0.7,0.4,1.6,0.7,2
			c0.8,1.3,1.2,2.1,0.7,4.7c-3.8-0.2-6.4-4.6-9.4-3.4c-1.7,2.2-0.8,5.1-1.3,7.4c-0.1,0.4-1.3,1.1-1.3,1.3c-0.2,0.5,0.3,1.6,0,2
			c-0.7,1.1-4.2,0.3-3.4,4c-6.5-1-3.3,7.9-6.7,10.1c-3,0.4-3.5-4-6-2c-1.5,1.5-0.2,3-0.7,4.7c-0.4,1.5-2.2,3.2-2.7,4.7
			c-0.4,1,0.3,2.4,0,3.4c-0.8,2.5-3.4,4-4,7.4c-0.3,1.8,0.9,4,0,6c-3.7-0.1-4.3,2.9-8,2.7c-0.9,0.4-1.2,1.4-1.3,2.7
			c-2.5-0.3-5.1,2.9-7.4,0.7c-1.5,0.9-2.2,2.7-4,3.4c-3.2-1.1-6.4-2.1-6.7-6c-4.8,0-6.5-2.9-9.4-6.7c-1.5-2-3.8-4.5-4-5.4
			c-0.5-1.6,1.1-3.9,0-5.4c4.6,1,2.7-4.5,6-4.7c-1.5-2.5-0.6-7.5,0.7-9.4c2.1-0.3,1.9,1.7,2.7,2.7c3.2-2.1,0.8-5.9,2-8.7
			c0.7-1.5,4.2-1.3,2.7-4c1.1,0.1,2.6-0.3,2.7,0.7c1.6-0.8,2.6-2.4,4-4c0.9-1.1,2.8-2.6,3.4-4c0.3-0.9,0.3-2.7,0.4-3.7
			c0.2-1.5-0.2-4.7,0.2-6.3c2.3-8.5-0.6-11.6,0.6-12.5c0.9,4,2.6,16.6,3.5,19.8c6.2-0.5,11.2-2.2,17.4-2.7c0.9,3.6,1.3,7.6,2,11.4
			c0.6-0.3,1.2-0.6,1.3-1.3V264.5z"/>
		<path class="st9" d="M633.3,345.6c2.3-6.1-3.1-11.9,2.7-14.1c3.3,0.3,6,4,9.4,2c0.6-3.3-2.2-3.1-1.3-6.7c2.3-0.4,3.6-1.8,6-2
			c1.3-2.4-0.9-2.4-0.7-5.4c0.7-1.3,4.8-2.7,3.4-4c1.2-0.8,3.2-0.6,4,0.7c2.5-0.9,0.9-1.7,3.4-2.7c2.6,0.3,5,0.8,6,2.7
			c1.9-1,1.9-3.9,4-4.7c1.7,0.8,3.8,1.1,4.7,2.7c1.6-1.7,1.5-5.2,3.4-6.7c2.1-2.1,1.1,2.3,4,1.3c0.8,1.8,3.5,0,4.7,0
			c0.4-1.4-0.8-4.4,0.7-4.7c-0.1-2.1,2.7-1.3,3.4-2.7c-0.5-3.6,2.3-3.9,3.4-6c0.3-1.6-1.2-1.5-0.7-3.4c1-1.8,3.1,0.7,3.4,0.7
			c2.3-0.4,2.8-3.8,6.7-3.4c0.2-2.8-1-4.3-1.3-6.7c0.7-1.4,2.2,0.1,3.4,0c1.4-0.1,2.1-1.1,3.4-0.7c2.9,0.9,3.4,4.4,5.4,6
			c3.7-0.4,6.4,0.3,8,2c2.1,0.6,2.1-1.1,3.4-1.3c2.9-0.2,2.7,2.2,5.4,0.7c2.2-0.3,2.7-2.3,4-3.4c1.8,2.3,4.1,4,6.7,5.4
			c0,2.1,1.6,4.4,0,6c3.9,4.2,6.1,10,11.4,12.7c1.2-0.2,1.4,0.6,0.7,0.7c-2,5.2-8,6.6-10.7,12.1c-1.1,2.2-1.2,2.6-3.4,4.7
			c-0.8,0.8-1.8,2.5-2,2.7c-0.5,0.3-2.4,0.2-3.4,0.7c-0.3,0.2-0.4,1.2-0.7,1.3c-0.4,0.2-1-0.2-1.3,0c-1.4,0.7-2.9,2.4-4,2.7
			c-1.9,0.5-6.6,0.2-10.1,0.7c-1.4,0.2-5.9,1.2-8,1.3c-2.8,0.2-5.4-0.3-8,0c-3.6,0.4-8.2,1.7-13.4,2c-2.6,0.2-5.3-0.2-8,0
			c-10.1,0.7-20.2,3.9-28.8,2c-0.5,2.3,1,2.6,0.7,4.7c-6.7,0.2-12.4,1.4-19.4,1.3"/>
		<path class="st9" d="M768.7,236.3c-1,0.8-1.9,1.7-2.7,2.7c3.7,2,1.2,8.1,0.7,14.7c-0.2,2.1,0.3,4.4,0,5.4c-1.3,4.1-5.2,5.6-6,8
			c-1.5-1.1-3.6,0.1-4-0.7c-1.1,0.2,0.5,1.8-0.7,3.4c-0.2,0.3-1.9,0.5-2,0.7c-0.6,1.3,0.9,3.9-1.3,4c-0.3,2.1,2.3,1.8,0.7,3.4
			c-1.8,0.5-1.3-1.3-2.7-1.3c-1.8,1.2-3.3,3-3.3,6c0,1.3,1,2.2,0.7,3.4c-0.4,1.3-0.8,1-1.3,2c-0.4,0.7-0.1,2.1-0.7,2.7
			c-0.6,0.6-1.5-0.9-2-0.7c-0.1,0,1.2,1.4,0,1.3c-3.2-0.2-2.3-2.5-6-3.4c-0.3-1.3-1.4-1.7-1.3-3.4c-2.6,0.6-4.1,2.2-5.4,4
			c-2.4,0.4-3.2-0.8-4.7-1.3c-1.7,0.3-2,2-4,2c-1.7-2.1-3.9-3.4-7.4-2c-0.9-2-3.3-2.5-3.3-5.4c-3.6-1.3-6.6-0.6-9.4-1.3
			c-1.3-19.5-4.6-37-6-56.3c5.7-0.4,10.8-1.1,15.4-2c1.7-0.3,3.7-1.4,5.4-1.3c0.1,0-0.1,1.3,0,1.3c-0.1-0.1,2-0.8,2.7-0.7
			c2.2,0.5,4.6,2.2,6.7,2.7c-0.2,0.9-1.2,1.1-1.3,2c2.1-0.2,4.8-0.1,3.4-0.7c1.9-1.6,3.3,0.8,5.4,0.7c3-0.2,5-2.8,7.4-4
			c3.7,1.6,5.9-0.9,8-3.4c1-1.2,1.6-2.4,2.7-3.3c1.8-1.6,4.3-2.3,6-3.4c2.1-1.3,3.5-3.2,6-3.3C765,218.6,766.7,227.6,768.7,236.3z"
			/>
	</g>
	<rect x="696.5" y="305.8" class="st2" width="42.9" height="19.4"/>
	<text transform="matrix(0.8 0 0 1 705.4746 311.1123)" class="st3 st4 st5">Eastern</text>
	<text transform="matrix(1 0 0 1 709.0176 320.3291)" class="st3 st4 st6">KY</text>
	<rect x="761.3" y="282.8" class="st2" width="25.6" height="19.4"/>
	<text transform="matrix(1 0 0 1 761.2549 290.7061)" class="st3 st4 st6">WV</text>
	<rect x="724.6" y="250.9" class="st2" width="25.6" height="19.4"/>
	<text transform="matrix(1 0 0 1 724.6279 258.7891)" class="st3 st4 st6">OH</text>
	<rect x="766.9" y="224.5" class="st2" width="42.9" height="19.4"/>
	<text transform="matrix(0.8 0 0 1 775.0361 229.7568)" class="st3 st4 st5">Western</text>
	<text transform="matrix(1 0 0 1 780.0117 238.9736)" class="st3 st4 st6">PA</text>
	<rect x="783.6" y="180" class="st2" width="42.9" height="19.4"/>
	<text transform="matrix(0.8 0 0 1 791.7803 185.2832)" class="st3 st4 st5">Western</text>
	<text transform="matrix(1 0 0 1 796.1426 194.5)" class="st3 st4 st6">NY</text>
	<path class="st10" d="M725.3,203.9c0.9,0.7,1.9-3.6,2.1-4.8c-0.3-0.8-1.3,0-1.8,0.5C725,200.1,724.6,203.3,725.3,203.9z"/>
	<g>
		<path class="st10" d="M728.4,201.6c0.8-1.3,2.4,0.9,3.5,1.9c-0.4,2.5-7.4,5.1-5.9,2.6C726.8,204.5,727.5,202.9,728.4,201.6z"/>
		<path class="st10" d="M633.5,345.5c2.3-6.1-3.1-11.9,2.7-14.1c3.3,0.3,6,4,9.4,2c0.6-3.3-2.2-3.1-1.3-6.7c2.3-0.4,3.6-1.8,6-2
			c1.3-2.4-0.9-2.4-0.7-5.4c0.7-1.3,4.8-2.7,3.4-4c1.2-0.8,3.2-0.6,4,0.7c2.5-0.9,0.9-1.7,3.4-2.7c2.6,0.3,5,0.8,6,2.7
			c1.9-1,1.9-3.9,4-4.7c1.7,0.8,3.8,1.1,4.7,2.7c1.6-1.7,1.5-5.2,3.4-6.7c2.1-2.1,1.1,2.3,4,1.3c0.8,1.8,3.5,0,4.7,0l2,30.2
			c-2.6,0.2-5.3-0.2-8,0c-10.1,0.7-20.2,3.9-28.8,2c-0.5,2.3,1,2.6,0.7,4.7c-6.7,0.2-12.4,1.4-19.4,1.3"/>
		<path class="st10" d="M672.9,152.6c0,1.6,0,3.1,0,4.7c0.3,2,0.9-0.9,2-0.7c0,0,0.2,1.1,0.7,0.7c1-0.7,1.8-2.5,2-4
			c0.2-1.5-1.2-3.8-0.7-5.4c0.9-2.6,2.2-4,5.4-4c0.9-2.9-2.6-1.4-2-4c0.3-2.8,2.7-3.5,4-5.4c1.7-0.5,2.1,1.6,4,2
			c2.6,0.6,6.1-0.6,6.7,2.7c6,0.5,10.6,2.3,13.4,6c0.1,1.9-2,1.6-2,3.4c0.5,1.9,2.4,2.5,3.4,4c0.2,4.2,2.3,10.1-2,12.1
			c0.5,2.5-0.8,3.2-0.7,5.4c-1.4,0.6-2.7,1.4-4,2c-0.6,5.5,0.2,8,4.7,8.7c1.6-2.9,4.8-4.1,4.7-8.7c3.1-0.5,3.6-3.5,7.4-3.4
			c5.9,4.6,4.9,16.1,10.1,21.4c-1.3,1.8-0.4,5.9-0.7,8.7c-2.2,0.8-0.5-2.2-2.7-1.3c-2.1,1.3-3.1,3.6-2.7,7.4
			c-1.3,0.7-2.3,1.7-3.4,2.7c1.1,6.5-3.1,7.6-3.4,12.7c-6.7,0.5-13.3,3-20.1,3.3c-1.9,0.1-4-0.7-6-0.7c-5.8,0.1-12.6,2-18.8,2.7
			c-2.3,0.3-5-0.1-7.4,0.7c-2.2,0.5-1-1.3,0-1.3c1.1-1.9,1.5-3.5,2.7-6.7c1.2-3.3,3.1-8.8,2.7-14.7c-0.3-4.1-2.6-7.3-2-10.7
			c-2.6-0.9-2.7-2.6-4-5.4c-0.3-0.7-1.2-1.1-1.3-2c-0.3-1.6,1.2-2.2,1.3-4c0.2-2.1-0.8-3.8-2-5.4c1-3.3,3.9-5.7,3.4-11.4
			c-0.1-1.1-0.8-2.1-0.7-2.7c0.4-2.2,3-3.2,2-5.4c2.3-1.1,4.3-2.4,5.4-4.7"/>
		<path class="st10" d="M666.9,312.1c-0.9,0.1-1.1,1.3-2,1.3c-1.4,0-1.7-1.2-2.7-1.3c-1.1-0.2-4.5,0.6-4.7,0.7c-0.2,0.1,0.2,2,0,2
			c-0.9,0.1-0.3-1.1-0.7-1.3c-1-0.7-4.5,1.9-6,0.7c-0.4-3.1,1.2-4.2,0.7-7.4c1.4-0.4,1.3-2,2.7-0.7c-1.1-3.1,2.9-6.3,3.4-10.1
			c0.5,0.1,0.7,0.7,1.3,0.7c-0.8-1.1-0.8-4.1-1.3-6c-0.1-0.3-1.6-1.8-1.3-2c1.3-1-1,0.1-1.3-1.3c1-1.5-0.1-5,2-5.4
			c-2.4-16.6-3.2-34.8-5.4-51.6c-1.9,0.5,3.2,0.5,3.4,0.7c0,0-0.8,1.3-0.7,1.3c-0.2,0,2.5-1.1,4-2c1.2-0.7,1.9-1.9,3.4-2.7
			c0.8-0.4,1.3,0.7,1.3,0.7c0.8-0.2,0.3-0.8,0-0.7c4.7-1.3,10.9-1.2,16.8-2c3.3-0.5,9.7-1.4,14.7-2c0.7,0.9,0,2.1,0,2
			c0.3,0.9,1.2,1.1,1.3,2c0.2,1.3-0.1,2.7,0,4c0.5,5.4,2,11.7,2.7,18.1c0.6,5.2,0.7,10.8,1.3,16.1c0.5,4.7,1.9,9.5,2,13.4
			c0.1,2.2-1,3.2,0,5.4c-3.3-2.3,2.2,3.4-1.3,1.3c0.6,2.3,1.5,0.1,2.7,1.3c0.3,1.1-2.5,2.2-2.7,0.7c-0.9-1.8,0.1,1.8-0.7,2
			c-0.5,0.2-1.6-0.4-1.3-0.7c-0.7,0.6,0.7,1.8-0.7,2c-0.8,0.1-1-1.2-1.3-1.3c-0.9-0.3-2.7,2.3-2.7,0c-2.4,1.3-0.2,3.1-0.7,6
			c-3.7,0.2-2,7.6-6,5.4c-0.5,2.1-0.4,4.9-1.3,6.7c-2,1.2-3.1-1.3-2.7-1.3c-0.7,0-0.7,1.9-2,1.3c0-2-1.2-2.8-2.7-3.4
			c-2.3-0.8-0.5,2.5,0,1.3c-0.3,0.8-1.5,0.7-2,1.3c-0.7,1-0.4,2.9-0.7,3.4c-0.1,0.3-2.2,0.3-0.7,0.7c-0.5,1.5-3.2-0.3-3.4-1.3
			c-1.7-0.7-2.3,2.9-3.4,0.7c-1,0.2,0.6,1.2-0.7,1.3"/>
		<path class="st11" d="M649.4,324.1c-3.3,0.1-5.1,1.6-6.7,3.4c-0.1,2.5,3.1,3.9,1.3,6c-4.5-2.4-11.3-4.3-12.7,2
			c-1.8,0.1-4.1-2.3-4.7-4c-0.3-0.9,0.7-2,0.7-3.4c-0.1-2.5-2.4-4-1.3-6c-2.7-0.7-3.7-3.9-6-5.4c-0.4-0.2-1.7,0.3-2,0
			c-0.2-0.2,0.2-1.2,0-1.3c-0.7-0.4-2.3-0.1-3.4-0.7c-0.3-0.2-0.4-1.2-0.7-1.3c-4.1-1.8-5.1-5.1-2-10.1c0.7-1.2,0.5-3.8,1.3-6.7
			c-1.2-1.2-3.4-2.7-5.4-2.7c-1.7,0-2.4,1.5-4,1.3c-1-2.3-0.6-5.1-2-7.4c-1.4-2.4-3.4-2.4-5.4-4c-0.5-0.5-0.8-1.5-1.3-2
			c-0.7-0.7-4.1-3-4.7-4c-0.7-1.1-0.9-3.8-1.3-5.4c-0.6-1.8-1.4-3-1.3-4.7c0.1-3.5,2.9-2.6,1.3-7.4c0.7-2,3-2.3,4.7-3.4
			c-0.6-4,1.8-4.9,2.7-7.4c-0.4-4.2-4.2-4.2-2.7-8.7c4-0.9,7.3-2.5,10.7-4c0.7-4.9,4.2-7,3.3-11.4c-0.4-2.3-1.6-2.9-3.3-4
			c-1.3-0.8-1.2-2.5-2.7-4c-1.2-1.2-2.8,0-2-2c15.6,0,29.4-1.9,44.2-2.7c-0.7,3.4,0.6,5,2,7.4c0.2,0.4,1.2,1.1,1.3,1.3
			c0.2,0.6-0.3,1.5,0,2c1,2.1,2.8,4.3,3.4,6.7c0.7,3,0.3,7.1,0.7,10.7c1,10.1,2.5,21.6,3.4,30.8c0.2,2.7,0.8,5.7,0.7,8
			c-0.1,1.7-1,1.9-1.3,3.3c-0.2,0.8,0.6,0.4,0.7,0.7c0.1,0.4-0.8,1.6-0.7,2.7c0.2,2.3,2.8,4.6,2.7,8c0,1.3-0.6,1.6-1.3,3.4
			c-1,2.5-1,2.9-2,4.7c-0.6,1.1-1.7,3.6-3.4,4c1.1,2.6-0.4,4.8-0.7,7.4c-0.1,0.9,0.8,2.2,0.7,3.4C650,319.1,647.8,321.1,649.4,324.1
			z"/>
	</g>
	<rect x="669.3" y="261.2" class="st2" width="25.6" height="19.4"/>
	<text transform="matrix(1 0 0 1 669.2627 269.1436)" class="st3 st4 st6">IN</text>
	<rect x="688.1" y="193.6" class="st2" width="25.6" height="19.4"/>
	<text transform="matrix(1 0 0 1 688.0713 201.4873)" class="st3 st4 st6">MI</text>
	<rect x="646.7" y="321.5" class="st2" width="42.9" height="19.4"/>
	<text transform="matrix(0.8 0 0 1 654.8838 326.7803)" class="st3 st4 st5">Western</text>
	<text transform="matrix(1 0 0 1 659.2471 335.9971)" class="st3 st4 st6">KY</text>
	<g>
		<path class="st11" d="M650,151.8l2.2-1.8c0,0.7-1.8,3.4-0.2,3.4c-0.3,0.8-2.2,1.4-2.7,2c-0.4,1.8-2,3.9-2.6,3.9
			c-0.5-0.5-0.7-1.2-0.5-1.8c0.2-0.6,0.5-2.2,1.1-2.5L650,151.8z"/>
		<line class="st11" x1="631" y1="103.6" x2="631.3" y2="104.3"/>
		<line class="st11" x1="627.3" y1="109.7" x2="626.6" y2="109.3"/>
		<path class="st11" d="M625.9,111.3l1.5-1.7c1.5-1.7,3.3-2.9,4-5.4V103c-4.1,1-7.4,2.9-8,7.4c2.1,0.8,2.1-0.2,2.7-1.3
			c0,0.2,0,0.4,0,0.7L625.9,111.3z"/>
		<path class="st11" d="M657.5,136.5c-0.1-0.5-0.7-0.7-0.7-1.3c-3.8-0.7-2.9,3.3-6,3.4c0-1.1,0-2.2,0-3.4c-2.1,1.1-2,4-3.4,6
			c-1.8,2.8-3.6,8.1-5.4,12.1c-2.3-0.4-1-3.2-0.7-4.7c0.5-1.1-3.2-1.1-2.7,0c-0.7-4.1,1.6-9.8-5.4-9.4c0.2-1.6-0.1-2.6-0.7-3.4
			c-1.9,0.9-4.1-1.2-6-1.3c-1.7-0.1-4,0.9-6.7,0c-0.4-0.1-1.1-1.3-1.3-1.3c-4.4-1.3-11.5-1.9-17.4-3.4c-0.2-2.4-1.6-3.8-4-4
			c0.5-1.9,3.2-1.7,4.7-2.7c1.6-1.1,2.2-3.1,4-4c6.1,1,7.1-3.2,11.4-4c0.9-1.7,2.3-3.1,3.4-4.7c4.1,0.3,3.9,5.1,4.7,8.7
			c2.1,0.3,0.2-3.3,2.7-2.7c0.1,0.6-0.3,0.6-0.7,0.7c2,0.8,2.6-1.8,4.7-2c4.7-0.4,8.2,4.6,10.1,8c5.2-0.5,7.1-0.4,11.4,0.7
			c2.1,0.4,1.9-2,2.7-2.7c0.5-0.5,1.8-0.6,2.7-1.3c1.6-1.4,1.1-1.8,4.7-2.7c1.9-0.5,3.8,0.1,6.7-0.7c2.6-0.7,4.5-3.3,7.4-2.7
			c-0.2,2.4,0.1,4.4,0.7,6c3.3,0.8,6.4-1.8,7.4,0.7c1.4-0.2,1.8-1.3,2.7-2c2,0.5,2.8,2.1,2.7,4.7c1.5,2.1,4.6,2.6,5.4,5.4
			c-3.7-0.1-8.1,0.5-10.7-0.7c-1.7,0.1-1.3,2.2-1.3,4c-2,0-2.5-1.5-3.4-2.7c-3.2-0.2-6.2-1.8-8.7-0.7c-1.7,0.6-2,2.5-3.4,3.3
			c-3.4,0.4-6.2-0.2-8,1.3c-1.3,1.1-0.8,2.8-2.7,4"/>
		<path class="st11" d="M609.6,99.7c0,1.2,6.4-1.8,7.4-2.1c1-0.3,4-3.4,4-4.4c0-1-3.3,2.6-4.4,3.4C615.6,97.4,609.6,98.4,609.6,99.7
			z"/>
		<path class="st11" d="M637.4,141.2c1,3,0,3.9,0,7.4c0.2,0.9,1.7,0.6,2.7,0.7c-0.9,3.8,1.8,4.1,1.3,7.4c-0.6,0.5-1.5,0.7-2.7,0.7
			c0.1,4.2-3.8,6.3-2,10.1c1.7,0.7,2-0.7,2.7-1.3c1.9-1.7,2.6-4.8,5.4-6.7c4.3,1.6,0.4,5,0,8c-0.4,3.1-0.6,4.9,0.7,7.4
			c-1.9,0.4-1.9,2.6-2.7,4c-0.8,2.1,0.7,4.3,0.7,6c-0.1,2.4-1.8,5.1-2,8c-0.2,1.8,0.5,4.8,0.7,6c0.1,0.7-0.7,1.4-0.7,1.3
			c0.2,0.8,1,1.9,1.3,2.7c1.1,2.2,1.7,4.5,1.3,9.4c-15.2,0.4-28.7,2.6-44.2,2.7c-2.2,0.6-0.9-2.2-2-2.7c-2.4-0.1-3.9-1-6-1.3
			c-0.1-3.7-3.9-8.5-0.7-11.4c-0.2-1.9-2-1.9-2.7-3.4c-1.1-2.5-0.3-6.3-1.3-8.7c-0.8-2-2-3.7-3.4-4.7c-0.8-0.5-2.9-0.4-4-1.3
			c-2.1-1.7-3.1-4.9-5.4-6.7c-0.4-0.3-2.3-0.6-3.3-1.3c-0.7-0.5-1.5-1.8-2-2c-1.2-0.6-3,0-4-0.7c-1.4-0.9-1.2-3-3.4-2.7
			c1.6-4.7-1.2-10.9,2-14.7c-0.8-2.1-1.9-3.9-4-4.7c-1-1.5,0.7-1.3,1.3-2.7c0.4-0.8,0.2-2.8,0.7-3.4c0.2-0.3,1.7-0.5,2-0.7
			c1.1-0.7,3-2.5,4.7-3.4c0.5-5.2-0.7-8.7-0.7-13.4c1.5,0.1,2.1-0.5,2-2c5.8,4.2,13.7-3.8,19.4-5.4c1.3,1.9-1.5,4.5-1.3,7.4
			c6.2-1.4,11.8,1.5,14.1,6c4,0.5,6.9,0.7,10.7,1.3c0.9,0.2,2.6,0.5,3.4,0.7c1.8,0.6,3.5,2.3,5.4,2.7c3,0.6,6.5-0.2,10.1,0.7
			c0.3,1.3,1.9,1.2,1.3,3.4C634.8,139.8,635.9,140.6,637.4,141.2z"/>
		<path class="st12" d="M502.5,211.8c1.4-0.9,1.8-4.7,1.8-7.1c0-2.5-2-1.6-1.3-2.7c0.7-1.1-1.1-3.8-0.2-4.2c0.9-0.4,0.9-0.4,0.9-0.4
			s75.7-1.1,83.3-2.9c0,0-0.2,2.7,1.5,3.4c3.1-0.3,0.1,2.9,0,4.7c-0.1,3.1,2.2,5.6,2.7,8.7c2.3,0.2,3.2,1.7,6,1.3
			c0.9,1.6-0.1,1.2,0.7,3.4c0.4,1,3.4,1.6,4,3.4c0.1,0.3-1,1-0.7,1.3c0.4,0.4,1.6,0.3,2,0.7c0.4,0.3,0.8,0.9,1.3,1.3
			c3,2.4,3.4,4.2,0.7,8.7c-1.3,0.9,0.2,4.7-2,4.7c-1.2,2-2.1-1.8-2.7,0c1.7,2.6-4.7,2.8-7.4,3.4c0.4,1.8-2,4.2,0,5.4
			c0.6,1.6,2.7,1.8,2,4.7c0.7,2.5-2.5,1.1-2,3.4c0.5,2-0.7,2.4-0.7,4c-1.2-0.1-1.4,0.8-2.2,1.1c0,0-2.3,1.8-2.1,4.2
			c0.2,2.4-4.2-4.3-6.4-4.7c-0.5-0.1-5.8,1.2-7.4,1.3c-17,1.8-39.9,1.9-57.6,2c0.6-1.4-1.7-2-2-3.3c-0.2-0.9,0.8-2.9,0.7-4
			c-0.1-1.7-1-4.3-1.3-6.7c-0.1-0.5,0.7-0.7,0.7-1.3c0,0-0.6-0.9-0.7-1.3c-0.4-2.7,0-2-1.3-3.4c-1-1,0.2-1.1-0.7-2
			c0.4,0.4-1.6,0.5-1.3-0.7c0.6-8.5-5-10.7-4.7-18.8c-1.7-1.2-3.8-4.1-1.3-4c-1.2-0.6-2.6,0.2-2.7-2c0-1.2,0.5-1.4,0.7-0.7"/>
		<path class="st12" d="M570.3,120.4c-0.8-0.9-0.3-1.1,0-2c-2.7,0.9,0.2,1.4,0,3.4c-1.9,0.1-0.8,3.2-3.4,2.7c-0.4,5,0.7,10.9,0,14.1
			c-2.3,1.5-5,1.8-6.7,4c-0.3,0.5-0.1,2.3-0.7,3.4c-0.3,0.6-1.8,0.6-1.3,2c0.2,2.4,2.9,2.5,4,4c0.3,2-1.1,2.7-1.3,4.7
			c-0.4,2.8,0.8,5.8,0.7,8c-0.1,1-1.5,1.5-1.3,2c0.3,0.9,1.1,2.4,0,2c0.2,1.1,0.9-0.4,2,0c0.2,0.1-0.1,1.2,0,1.3
			c0.2,0.2,1.2-0.2,1.3,0c0.4,0.5,0.2,2.1,0,2c0.2,0.1,1-0.7,1.3-0.7c0.7,0,0.4,0.7,0,0.7c1.6,0.2,1.4-0.1,3.4,0
			c0.9,2.3-0.5,1,1.3,2c0.8,0.4,3,1.8,4.7,2c0.9,2.4,2.9,3.8,4,6c1.4,0.8,3.7,0.7,4.7,1.3c3.2,2.1,2.9,6.4,4,10.1
			c-26.4,2-53.9,2.8-82.4,2.7c-1.9-10.5,3.2-33.9-1.3-40.9c-0.1-0.2-1.3-0.6-1.3-0.7c-0.1-0.3,1-1,0.7-1.3c0,0-2,1.1-2.7,0.7
			c-0.5-0.3,0-3.7-2-3.3c0.6-1,1.3-0.8,2.7-2.7c0.2-0.3,1.3-1.2,1.3-1.3c0.2-0.4-0.3-1.7,0-2c0,0,1.8,0.9,2,0
			c0.2-0.6-1.1,0.2-1.3-0.7c-0.6-2.4,0.1-6-0.7-9.4c-0.5-2.1-2.3-3.1-2.7-6.7c-0.3-3-0.5-6.1-0.7-8.7c-0.1-1,0.7-2.7,0.7-2.7
			c-0.1-1.4-1.2-2.9-1.3-4c-0.5-3.5-0.2-6.8,0-9.4c-0.7-0.9-1.1,0.3-2-1.3c-0.4-4.7-2.6-9.1-2-16.1c0.3-2.8,0.2-5.7-1.3-8.7
			c8.3-1.9,23.9,0.5,30.2-1.3c1.3-1,0-4.1,0-7.4c1.1,0,2.2,0,3.4,0c0.7-0.6,0,3,0,2.7c0.1,0.8,0.8,0.3,0.7,0c0.6,2,1.6,4,2,6
			c0.2,0.9,0.4,4.1,0.7,3.4c-0.9,2.7-1.7-0.8-3.4,0.7c0.5,0.5,1.2,0.5,2,0.7c-0.1,0,0.3,1.1,0.7,0.7c1.5-1.9,2.1,0.2,4,0.7
			c0.3,0.1,1.2-0.7,2-0.7c-0.2,0,5.2,1,6,1.3c0.3,0.1,1.1-0.2,1.3,0c0.7,0.7,0,1.9,1.3,2c1,0.1,4.3-0.1,4,0c2-0.7,1.2-2.4,3.4-2.7
			c1.7-0.2,4.3,0,6,0.7c0.4,0.2,2.6,1.3,2.7,1.3c0.8,0.6-0.3,3.6,2,2c0.3,2.4,2.2,3.2,3.4,4.7c2.2-0.1,0.5-4,3.4-3.3
			c1.2,0.2,0.8,2,2,2.7c1,0.6,4.3-0.4,3.3,2.7c2.4,1.2,6.7-0.1,8,0.7c-0.1-1.3,2.2-2.7,4-4c2.5-0.5,1.5,2.6,3.3,2.7
			c3-0.7,5.7-1,8.7-0.7c1.5,0.2,3.5,3,6,1.3c-0.3,1.8-2.6,3.3-4,2c-1.5,0.4,0.8,1-0.7,2c-3.5,1.2-7.7,1.7-9.4,4.7
			c-0.9,0.5-1.4-1.1-2-0.7c-0.1,0,0.7,1,0.7,1.3c0,0.1-2.2,1.5-2.7,2c-1,1-1.5,2.9-3.4,2.7c0.7,2.5-1.6,2.6-2.7,4
			c-0.2,0.3-0.4,1.8-0.7,2c-0.8,0.6-1.8-0.3-2,0c-0.2,0.2,0.9,0.9,0.7,1.3c-0.1,0.1-2.7,1.4-3.4,2
			C573.5,117.9,572.7,120.2,570.3,120.4z"/>
		<path class="st12" d="M625.3,355c1.1,6.1-8.5,4.7-11.4,4.7c0.2-3.6,4-3.6,4.7-6.7c-0.9-1-1.1-3.4-2-4c-1.8-1.2-17.9,1-24.1,1.3
			c-17.4,0.9-40.3,1.5-55,2c-0.2-19.6-0.4-39.3-1.3-58.3c-1-1.2-2.9-1.6-4-2.7c0.2-4-3.9-3.7-4-7.4c1-1.2,1.7-2.8,3.4-3.4
			c0.6-4.8-3.1-3.5-5.4-4c0.2-1.7-1.9-1.1-2.7-2c-0.9-1.1-1.2-3.3-2-4.7c-1.6-2.6-4.7-4.8-4.7-8c12.7,0,27.8,0.2,41.6-0.7
			c2.7-0.2,7.7-0.4,12.1-0.7c4.3-0.3,8.6-2,11.4-1.3c2.7,0.6,3.9,3.7,6,4.7c-1.4,4.7-0.2,10.4,2,14.1c0.8,1.3,2.1,2.1,3.4,3.4
			c0.5,0.5,1.6,0.8,2,1.3c0.5,0.6,0.1,1.6,0.7,2c0.6,0.5,2.7,0.8,3.4,1.3c1.1,0.8,0.7,1.9,2,2c0.9,2.9,0.8,6.8,2.7,8.7
			c2.4,0.4,2-2,4-2c1.4,0.8,3.1,1.4,4.7,2c-0.4,5.9-5.6,10.9-2,15.4c1.1,1.4,2,2.3,3.3,3.4c0.9,0.6,3.4,0.6,3.4,2.7
			c2.4-0.8,4,1.4,5.4,2.7c0.4,0.4,1.7,0.9,2,1.3c0.4,0.6,0.2,2.1,0.7,3.3c0.3,0.8,2.3,1.9,1.3,4c0,0-1.3,0.8-1.3,0.7
			c0.7,2.6,3.2,3.7,3.4,6c1.7,1.2,3.3-0.7,4.7,1.3c-0.8,0.7,0.2,1.7,0,2.7c-0.2,1-1,1.4-1.3,2.7c-0.2,0.7,1.2,1.2,0,2.7
			c0.2-0.3-1.7-0.2-2,0c-1.4,0.8-2.1,3.5-2.7,0c-1.7,1.5-1,3-0.7,5.4c-2.3,0.3-0.9,1.1-1.3,2C625,353.6,624.2,354.7,625.3,355"/>
		<path class="st12" d="M491.9,76.8c0.3,1.8,0.5,3.2,0.7,4.7c0.3,2.2-0.2,4,0,8c0,0.6,0.8,1,0.7,2c-0.3,1.7,0.4,5.7,1.3,8.7
			c0.7,2.4,2.3,4.3,2.7,6.7c0.2,1.3-0.7,2.4-0.7,2.7c0,1.1,1.2,4.9,1.3,7.4c0.1,1.4-0.7,1.8-0.7,2.7c0,0.4,0.3,5.2,0.7,7.4
			c0.2,1.1,0.2,2.8,0.7,4c0.3,0.8,1.8,1.8,2,2.7c0.8,2.7,0.3,5.4,1.3,8c-38.4,1.7-77.7-1.4-114.6-3.4c2.1-21.8,2.3-45.5,5.4-66.3
			C424.2,75.4,459.5,74.6,491.9,76.8z"/>
		<path class="st12" d="M502.1,217.5c-3.6-4.2-9.1-5-11.5-7.3c-2,0.9-4.8,0.2-7.4,0.7c-1.9,0.3-2.8,0.5-4,1.3
			c-1.1-0.6-3.2-1.1-4.7-2c-1.3-0.8-2.3-2.4-3.4-2.7c-2.8-0.7-6.5,0.1-9.4,0c-24.8-1.1-55.6-1.9-79.1-4c0.5-22.6,3.4-42.6,4.7-64.3
			c36.4,2.9,74.4,4.2,113.9,4c0.4,4.2-3.5,4.1-4,7.4c1.1,1.1,1.5,3,2.7,4c0.9,1.2,3.2,0.8,3.3,2.7c0.4,12.3-0.8,26.3,0.7,37.5
			c0.3,3.3-2,0.4-2.7,2c-0.4,1.5,1.3,2,1.3,3.4c0,1.2-0.9,1.4,0,3.4c0.4,1,0.8,4.4,0,6.7c-0.4,1.1-2.3,3.1-0.8,4.6L502.1,217.5z"/>
		<path class="st12" d="M522.1,273.9c-36.6,1.9-74.7-0.3-110.6-1.3c-0.5-8.1,1-14.2,0.7-22.1c-10.3-1.5-22.6-1.1-32.8-2.7
			c1.3-14.3,1.5-29.7,3.4-43.6c19.7,2.5,46,2.3,67.7,4c6.3,0.5,13.4-1.1,18.8,0c2.8,0.6,5.2,2.8,8,4c0.6,0.3,1.2,0.6,1.3,1.3
			c2,0.6,2-1.7,3.4-2c1.8-0.5,6,0.9,8-0.7c1.8,0.2,1,1.9,2.7,2.7c1.4,0.7,3.5,0,4.7,0.7c1.2,0.7,2.3,2.5,3.4,3.4c1.3,1,2.3,1.8,4,2
			c-1.4,1.6,1.3,3.6,1.3,4.7c0.1,1.3-0.6,2.7,1.3,4.7c0.6,0.6,0.7,1.7,1.3,3.4c0.7,1.8,1.9,3.3,1.3,7.4c0,2,2,2,2.7,3.3
			c0.6,1-0.1,2.7,0,3.4c0.3,1.6,1.2,1.5,1.3,2.7c0.2,1.5-0.7,1.7-0.7,2.7c0,0.2,0.6,1.2,0.7,2c0,1.1,0.1,0.9,0,2
			c-0.3,3.3,1.2,6.6,2.7,9.4c0.2,0.3,0.3,1.5,0.7,2C518.3,268.6,521.9,270.7,522.1,273.9z"/>
		<path class="st12" d="M528.8,280.6c-0.3,0.6-1,2.1-1.3,3.4c-0.3,1.2,0.3,3.1-1.3,3.3c0.6,2,1-1.6,2.7-0.7c-0.1,1.5,0.5,2.1,2,2
			c-0.7,4.5,3.6,3.9,4.7,6.7c0.1,15.3,1.1,29.7,0.7,45.6c-42.6,1.9-86.2-0.3-128-1.3c0.9-22.3,1.8-44.7,3.4-66.3
			c21.5,2.1,45.6,0.8,68.4,2.7c7.1,0.6,15.3,0.3,22.1,0c7.9-0.3,15.2-1.8,20.1-0.7c2.5,0.6,2.2,0.7,4,2.7c1.9,1.9,3.1-2.3,3.4,0.7
			c1.1-0.2,1.3,0.5,1.3,1.3C527.4,278.9,529.3,279.6,528.8,280.6z"/>
		<path class="st13" d="M215.8,48.7c9.4,0.8,21.2,3.7,30.8,5.4c15.9,2.7,32.8,5.6,49.6,8c20.2,3,41.6,5.5,62.3,7.4
			c6.9,0.6,13.8,1.6,20.8,2c4.1,0.3,8.3,0.1,12.1,0.7c-2.8,28.5-3.5,59-6.7,87.1c-28.2-2.4-57.1-4.8-85.1-8.7
			c-7.8-1.1-15.7-2.9-23.5-2.7c-1.9,1.9-1.7,5.8-2,9.4c-2.8,0.1-1.3-4-3.4-4.7c-3.6-0.7-2.1,3.7-5.4,3.4c-2.8-0.8-5.8-1.9-8.7-2
			c-1.4,0-2.1,1.2-3.4,1.3c-1.3,0.1-2.5-0.7-4-0.7c-2.1,0-2.9,0.7-4.7,1.3c-0.8-3.5,0-10.1-5.4-10.7c-1.5-1.4,0.6-2.3,0-4.7
			c-0.3-2-2-3.1-2.7-5.4c-1-3.1-0.1-7.3-2-10.1c-2.6-0.4-3.7,2.4-5.4,2.7c-2.3,0.4-1.9-0.1-4.7-1.3c-0.9-2,1.3-2,1.3-3.4
			c0-0.3-0.5-1-0.7-0.7c0.9-1.7,1.8-0.9,2.7-2.7c-1.5-6.6,2.5-10.6,4-16.1c0-2.2-3.8-0.7-4.7-2c1.8-1.8-0.4-0.3-1.3-1.3
			c-0.4-0.5-0.3-1.5-0.7-2c-1-1.4-1-0.3-0.7-2c0.1-0.4-1.1-1.6-1.3-2c-0.9-1.8-2.2-4.3-3.4-6c-0.8-1.1-1.8-1.6-2.7-2.7
			c-0.4-0.5-0.2-1.4-0.7-2c-0.6-0.8-1.4-1.3-1.3-2.7c0.1-1.1,0.8-1.5,0.7-2.7c-0.5-3.8-2.5-5.9-4-8.7
			C213.4,62.8,215,56.1,215.8,48.7z"/>
		<path class="st13" d="M384.7,159.9c-2.9,28.6-3.8,59.2-6.7,87.8c-39.6-2.8-78-6.9-114.6-12.7c3.3-20.2,6.2-42.8,9.4-65
			c0.5-3.3,1.5-6.6,2-10.1c0.6-4.2-0.2-8.7,2.7-11.4c4.2,0.4,14.2,1.7,21.4,2.7c23,3.2,49,6.2,73.1,8
			C376.2,159.6,380.5,160.1,384.7,159.9z"/>
	</g>
	<rect x="299.1" y="102.6" class="st2" width="25.6" height="19.4"/>
	<text transform="matrix(1 0 0 1 299.0605 110.5586)" class="st3 st4 st6">MT</text>
	<rect x="315.8" y="196.3" class="st2" width="25.6" height="19.4"/>
	<text transform="matrix(1 0 0 1 315.8047 204.2178)" class="st3 st4 st6">WY</text>
	<rect x="435.1" y="104.7" class="st2" width="25.6" height="19.4"/>
	<text transform="matrix(1 0 0 1 435.1006 112.6094)" class="st3 st4 st6">ND</text>
	<rect x="435.6" y="171.7" class="st2" width="25.6" height="19.4"/>
	<text transform="matrix(1 0 0 1 435.624 179.583)" class="st3 st4 st6">SD</text>
	<rect x="435" y="235.2" class="st2" width="25.6" height="19.4"/>
	<text transform="matrix(1 0 0 1 434.978 243.1455)" class="st3 st4 st6">NB</text>
	<rect x="463.2" y="302.2" class="st2" width="25.6" height="19.4"/>
	<text transform="matrix(1 0 0 1 463.2324 310.1201)" class="st3 st4 st6">KS</text>
	<rect x="563.2" y="309" class="st2" width="25.6" height="19.4"/>
	<text transform="matrix(1 0 0 1 563.1699 316.9219)" class="st3 st4 st6">MO</text>
	<rect x="542.2" y="223.7" class="st2" width="25.6" height="19.4"/>
	<text transform="matrix(1 0 0 1 542.2402 231.6357)" class="st3 st4 st6">IA</text>
	<rect x="525.5" y="146.8" class="st2" width="25.6" height="19.4"/>
	<text transform="matrix(1 0 0 1 525.4971 154.7197)" class="st3 st4 st6">MN</text>
	<rect x="601.4" y="166.7" class="st2" width="25.6" height="19.4"/>
	<text transform="matrix(1 0 0 1 601.3662 174.6035)" class="st3 st4 st6">WI</text>
	<rect x="605.4" y="267" class="st2" width="42.9" height="19.4"/>
	<text transform="matrix(1 0 0 1 620.9678 274.8809)" class="st3 st4 st6">IL</text>
	<path class="st14" d="M59,271.2c2.7,0.7,2.5,4.2,5.4,4.7c0.1-0.8,0.1-2.7-0.7-6c-0.4-1.9-1.9-4.5-2-7.4c1.4-0.4,2-0.1,3.4,0
		c0.6,0,1,0.8,2,0.7c0.5-0.1,2.9-0.6,4,1.3c2,0.5,2.4-0.7,4-0.7c1,1,1.2,2.8,2.7,3.4c1.1-3.9-4.9-3.2-3.4-5.4c-3,2.5-5.8-2-8,0
		c-2.2-0.7-2.1-3.7-5.4-3.4c-2,0.7-1.3,4-2,6c-1.3-0.9-2.8-2.6-4-4c-1.1-1.3-3-2.2-2-4c0.7,0.2,0.5,1.3,1.3,1.3
		c-0.3-3-0.8-5.8-2-8.7c-0.3-0.8-0.9-0.8-1.3-1.3c-0.3-0.4-1.8-2.5-2-3.4c-0.2-0.6,0.3-1.5,0-2c-1-2.1-3.1-4-3.4-6
		c-0.1-0.9,1.2-2.6,1.3-4.7c0.1-2-0.9-3.6-0.7-4.7c0.7-3.6,3.4-4.6,2.7-10.1c-0.3-2.4-1.5-5.6-2.7-8c-0.7-1.4-2.5-3-2.7-4.7
		c-0.4-4.5,2.4-8.7,6.7-10.1c-1.9-1.2,1-2.3,1.3-3.4c0.2-0.9-0.5-2.8,0-4c0.7-1.8,2.6-2.8,3.4-4.7c1.4-3.8-0.8-9.2,1.3-13.4
		c21.9,5.3,42.3,12.2,65,16.8c-1.8,11.3-4.8,22.1-7.4,32.8c-2.6,10.8-5.3,21.5-8,32.2c13.4,20.4,28,40,41.6,60.3
		c0.8,1.2,1.2,2.8,2,4c0.7,1,2,1.7,2.7,2.7c0.8,1.2,1.2,2.8,2,4c0.7,1,2,1.7,2.7,2.7c0.8,1.2,1.2,2.9,2,4c0.7,1,2,1.7,2.7,2.7
		c0.8,1.2,1.3,2.9,2,4c0.3,0.4,1.1,0.9,1.3,1.3c4.2,6.8,9.3,14.8,14.7,21.4c-2.1,4.1,3.8,8.4,2,12.1c0.6,2,3.3,2.1,3.4,4.7
		c-0.6,2.4-3.5,2.3-4.7,3.4c-1.1,0.9-2.6,2.5-3.4,4c-0.9,1.8-0.3,5.4-1.3,7.4c-0.2,0.4-1,0.8-1.3,1.3c-0.6,0.9-1.4,2-3.4,2.7
		c0.2,3.1,0.7,3.7-0.7,6c-0.1,2.3,2.9,1.5,3.4,3.4c0.8,2.8-1.4,2.6-1.3,4.7c-13.8-1.2-31.9-3.3-47.6-4.7c-0.7-0.9,0.7-2.7,0.7-2.7
		c-0.4-2.2-1.9-0.7-2-2c-0.2-1.9,1-5,0.7-8c-1-8.3-7.9-11.3-11.4-18.1c-1.9-0.7-2.8-0.7-4.7,0c0.3-3-0.3-5-0.7-7.4
		c-5.2-1.5-8.3-1.5-11.4-4.7c-0.9-0.9-0.7-2.3-1.3-3.3c-1.8-3.2-4.3-5.5-8.7-5.4c-1.9-2.7-5.8-2.9-9.4-3.4c-1.4-0.2-1.8-3.4-4-3.4
		c2.1-2.9,1.4-8.4,3.4-11.4c-0.1-2.6-2.7-2.7-4-4c0.3-1.3,1.4-1.7,1.3-3.4c-0.2-2.1-2.3-3-3.4-4.7c-0.3-0.5,0.2-1.5,0-2
		c-0.2-0.4-2.2-1.5-2.7-2.7c-0.9-2.2-0.5-4.5-1.3-6.7c-0.3-0.8-1.6-1.1-2-2c-0.5-1-0.3-2-0.7-2.7c-1.7-3-3-4.7-2-10.1
		c2.4,0.4,2-2,4-2c0.2-2.4-0.1-4.4-0.7-6c-0.3-1.5-3.6,0-4-1.3c-1-2.2-2.9-3.4-3.4-6c-0.2-1.3,1.2-2,1.3-3.3
		c0.1-1.4-1.7-4.1-0.7-4.7"/>
	<line class="st0" x1="57.6" y1="271.2" x2="58.3" y2="271.5"/>
	<path class="st0" d="M58.3,271.5c-0.1-1,0.1-2.1,0.7-3"/>
	<line class="st0" x1="58.3" y1="271.5" x2="59" y2="271.2"/>
	<rect x="87.8" y="290.9" class="st2" width="25.6" height="19.4"/>
	<text transform="matrix(1 0 0 1 87.8086 298.8438)" class="st3 st4 st6">CA</text>
	<g>
		<line class="st0" x1="89.1" y1="77.5" x2="89.5" y2="76.8"/>
		<path class="st0" d="M87.8,76.8c0.4,0,1.1,0,1.7,0"/>
		<line class="st0" x1="89.5" y1="76.8" x2="89.1" y2="76.2"/>
		<path class="st15" d="M192.4,336.2c-2.7,0.2-1.8-3.1-4-3.4c-2.1,0.1-3.8-1.6-5.4,0c-1.8,0.4-1.3,2-1.3,3.4c0,1.1,0.1,1.6,0,2.7
			c-0.2,2.4-0.5,4.9-0.7,7.4c-0.2,2.2,1.1,4,0.7,6c-0.3,1.7-3,2-2,4c-5.1-7.1-10.4-14.8-15.9-22.8c-9.7-14.2-19.8-29.3-29.7-43.6
			c-2.4-3.5-5.5-7.3-8-11.4c-1-1.6-1.8-3.2-3.4-5.4c-0.3-0.4-1.1-0.9-1.3-1.3c-0.3-0.5-0.3-1.4-0.7-2c-0.7-1-2-1.6-2.7-2.7
			c-0.4-0.6-0.3-1.4-0.7-2c-1.3-2-4.1-5.1-6-8c-3.2-4.8-4.7-5.6-3.4-11.4c0.3-1.2,1.1-2.2,1.3-3.3c0.7-2.9,0.8-6.3,1.3-8.7
			c3.8-15.7,8.6-31.8,12.1-47.6c30.6,7.6,62.4,14,94.5,20.1c-4.9,26.4-9.3,54.6-14.7,81.1c-1.7,8.4-2.5,17.2-4,25.5
			c-0.8,4.1-1.9,8-2.7,12.1C195,328.7,195.2,333,192.4,336.2z"/>
		<path class="st15" d="M171.2,196.6c1-7.1,2.6-12.1,3.8-18.2c1.3-6.4,2-12.9,3.3-18.9c0.4-2.1,2-3.7,2.7-5.4c0.7-1.7,0.5-4,0.9-5.7
			c-0.6-1.4-3.2-1-3.1-3.1c-0.1-6.9,4.5-7.8,8.2-10.8c-1.2-2.1,0.5-3,1.4-4.4c0.8-1.2,1.8-4.1,2.7-5.4c1.9-2.8,4.3-3.8,4.2-6.3
			c0-1.7-1.7-3.2-2.7-4.7c-1-1.4-1.5-1.6-2.3-3.6l0.7-1.4c-0.7-1.6,0.1-1.9-0.6-4.4c-0.2-0.8-0.3-3.1-0.2-3.8c0,0.1,0.6-0.7,0.8-1.2
			c0.7-2-0.1-5.1,0.3-7c1.3-7,4.2-13.9,5.1-21.9c0.6-4.9,2.3-7.8,2.7-11.4c0.1-1.1,0.6-3.2,0.7-3.4c0.2-0.4,0.9-4.1,0.9-4
			c0.6-3.5,0.3-3.5,1.5-5.8l12.3,2.7c-0.8,7.7-2,13.4-3.6,20.3c1.6,2.9,3,5,3.5,8.9c0.2,1.2-0.6,1.6-0.7,2.8c-0.1,1.4,0.8,2,1.3,2.8
			c0.5,0.6,0.2,1.5,0.7,2.1c0.9,1.1,1.9,1.6,2.7,2.8c1.2,1.8,2.4,4.4,3.4,6.2c0.2,0.5,1.4,1.6,1.3,2.1c-0.3,1.7-0.4,0.7,0.7,2.1
			c0.4,0.5,0.2,1.6,0.7,2.1c0.9,1.1,3.4,0.3,1.6,2.2c0.9,1.4,4.4-1,4.4,1.3c-1.5,5.7-5.2,8.4-3.8,15.3c-0.9,1.9-1.8,1.1-2.7,2.8
			c0.2-0.4-0.2,1.4-0.2,1.7c0,1.4-0.7,1.5,0.2,3.6c2.8,1.2,3.3,1.6,5.6,1.1c1.6-0.3,1.9-2.7,4.5-2.2c1.9,2.7,0.5,6.1,1.6,9.6
			c0.7,2.3,2.2,3.1,2.5,5.1c0.6,2.5-1.1,3.6,0.4,5.1c6.7,0.7,4.4,5.4,5.6,10.9c1.8-0.7,2.6-1.1,4.7-1.1c1.5,0,2.3,0.6,3.6,0.4
			c1.3-0.1,3.2-1.6,4.7-1.6c2.9,0.1,5.5,0.9,8.3,1.8c3.2,0.3,1.7-3.7,5.4-2.9c2,0.7,0.1,5,2.9,4.9l-8.1,54.5L171.2,196.6z"/>
		<path class="st15" d="M55.6,166.6c-1.7-4.4-0.3-10.3,2-12.7c-3.1-6.4,2.9-9,3.4-14.1c1.5,2.6,2.7-4,3.4,0c2.5-2.2-0.6-2.9,0.7-5.4
			c1.6-0.4,1.1-2.9,4-2c0.5-2-1.2-2-0.7-4c2.9-3.2,2.6-9.5,6-12.1c-0.7-7.3,5.9-12.8,6.7-20.8c1-0.8,1.7-0.8,2.7,0
			c-0.1-0.9-1.3-1-1.3-2c0-1.2,1-1.3,1.3-2.7c0.3-1.1-0.2-2.5,0-3.4c0.6-2.5,2-4.6,2-7.4c2.2-0.8,0.5,2.2,2.7,1.3
			c1.7-1.9,5.5-0.2,5.4,2c3.3-0.6,4.5,0.8,6,2c-0.5,0.9,0.6,1.1,0.7,1.3c1.3,6.1-2.8,8.2,2,11.4c0.8,0.5,1.9,0.1,2.7,0.7
			c0.6,0.4,0.4,1.2,1.3,1.3c1.3,0.2,3.4,0.2,4.7,0c1.4-0.3,1.8-1.4,3.4-1.3c3.9,0,6.9,1.5,9.4,4c2.6,1.2,5.3-0.3,8,0
			c1.3,0.1,2.7,1.3,4,1.3c4.7,0.1,9.4-1.4,14.1-1.3c1.6,0,3.8,0.6,5.4,0.7c1.7,0.1,3.2-0.2,4.7,0c4.8,0.6,9.5,2.4,14.1,3.4
			c4.9,1,9.5,2,14.7,2.7c0.8,2,1.7,3.3,2.7,4.7c1,1.4,2.6,2.3,2.7,4c0.1,2.4-2.8,4.6-4.7,7.4c-0.8,1.2-1.2,2.8-2,4
			c-0.9,1.4-3.3,1.9-2,4c-3.8,2.9-8.2,5.2-8,12.1c-0.1,2.1,2.7,1.3,3.4,2.7c-0.4,1.7-0.2,3.5-0.8,5.2c-0.7,1.7-2.2,3.3-2.7,5.4
			c-1.3,6-2.1,12.5-3.4,18.8c-1.2,6.1-3,12.1-4,18.1c-31.7-5.9-62.8-14.5-92.3-22.6c-0.9-0.3-1.6-0.5-2-0.7
			C69,170.5,61.8,170,55.6,166.6z"/>
		<path class="st15" d="M117.3,46c1.5-0.4,1,1.3,2,1.3C119,49,116.7,47.4,117.3,46z"/>
		<path class="st15" d="M115.3,49.3c1.7,0.3,0,2.6-1.3,2C114.2,50.5,115.1,50.3,115.3,49.3z"/>
		<path class="st15" d="M89.1,76.2c0.4-2.5-1.9-3.9,1.3-4c-0.4-0.7-1.5-0.7-1.3-2c1.8-0.1,1.3,1.1,2.7,0c1.4-2.1-2.7-2.1-0.7-2.7
			c-0.1-1.3-2.5,1-3.4-0.7c-0.2-3.1,3.7-2.1,5.4-3.4c-2-0.7-2.7-2.6-4.7-3.4c1.1-2.9-0.6-6.2,0-10.1c0.2-1.6,1-5.3,0-8
			c-0.3-0.8-1.2-1.1-1.3-2c-0.3-1.6-0.2-4,0-5.4c0-0.1,1.2,0.9,1.3,0.7c0,0-0.8-1.5-0.7-2c0.2-1,3.3-2.4,0.7-2
			c0.2-1.8,1.1,0.5,2,1.3c1.7,1.6,3.2,1.4,2,4c0.7-0.4,0.7-1.5,2-1.3c0.2,2.8,3,2.2,6,3.4c0.3,0.1,0.4,1.2,0.7,1.3
			c1,0.4,2.9,0.1,4,0.7c0.9,0.5,1.7,2.2,4,0.7c-0.9,3,3.8,2.1,2,4c0.9,0,1.8,0,2.7,0c0,1.3,0,2.7,0,4c-2.8-1.4-2.5,1.4-4,0
			c-1.7,0.2,0.9,1.2,0,2.7c-0.9,0.6-5.6,3.3-6,4.7c-0.3,1.1,2.6,1.7,0.7,2.7c1.3-0.9,3.8-0.6,5.4-1.3c-1.9,1.4-2.9,3.8-6,4
			c1.4,0.9,0.9,3.5,2.7,4c0.6-0.5,1-1.2,1.3-2c0,1,1.6,1.2,0.7,2.7c2.3-1,2.5-3,4-4c0.6-0.4,0.7,0.7,0.7,0.7c1.2-0.2,2.6-2.2,4-2.7
			c-0.5-1.3,0.6-2.8,0.7-4c0-0.6-0.6-2.4-0.7-2c0.2-0.9,1-0.1,1.3-0.7c0.4-0.6-0.4-2,0-2.7c0.6-0.9,2.4-1.2,2.7-2.7
			c1.2,0.6,2.6,1.5,1.3,2.7c2.5-1.3-1.4-3.2-2-6c-0.4-2,1.8-4.5-0.7-6c1-1.8,2.5-5.2,2-8c-0.1-0.9-1.1-0.1-1.3-0.7
			c-0.1-0.3,1-2.1,0-0.7c-1.1-0.4-0.4-1.5,0.7-1.3c0-1.3-1.6-0.1-1.3,0c-1.7-0.8,0.7-2.8-0.7-1.3c-1.1-3.1,1.7-0.8,2.7-0.7
			c2,0.2,5.7,0.7,8,1.3c2.4,0.7,4.7,2.1,6.7,2.7c1,0.3,2.3-0.2,3.4,0c2.1,0.4,3.9,2.3,5.4,2.7c0.4,0.1,1.6-0.8,2.7-0.7
			c1.5,0.2,3.1,1.6,4.7,2c1,0.3,2.3-0.2,3.4,0c1.4,0.3,3.2,1.8,4.7,2c4.1,0.7,7.6,1.8,11.4,2.7c4.1,1,8,1.1,12.1,2
			c0.8,0.2,2,1.2,2.7,1.3c4.9,1.1,9.7,1,14.1,2.7c-1.2,2.3-0.7,3.9-1.3,7.4c0-0.1-0.5,2.3-0.7,2.7c-0.1,0.2-1.3,0.6-1.3,0.7
			c-0.1,0.4,0.8,1.6,0.7,2.7c-0.4,3.6-2.1,6.5-2.7,11.4c-1,8-4.1,16.5-5.4,23.5c-0.4,1.9,0,3.4-0.7,5.4c-0.2,0.5-1.3,2.1-1.3,2
			c0,0.7,1.1,1.3,1.3,2c0.7,2.5-0.7,3.7,0,5.4c-4.9,0.8-9.8-1.6-14.7-2.7c-2.9-0.6-6.7-0.4-9.4-1.3c-0.2-0.1-0.5-1.3-0.7-1.3
			c-0.3-0.1-1.2,0.7-2,0.7c-1.2-0.1-2.8-1.2-4-1.3c-2.2-0.2-2.6,0.4-4.7,0c-1.1-0.2-5.5-0.6-5.4-0.7c-0.4,0.1-0.7,1.3-0.7,1.3
			c-1.1,0-2.5-0.7-4-0.7c-1.4,0.1-7.5,1.6-8.7,1.3c-0.5-0.1-0.7-1.9-2-1.3c1.1-1.3-0.1-0.9,0-2.7c-0.8,0.2-0.7,1.3,0,1.3
			c-0.1,1.3-1.5,0-1.3,0c-0.6,0.1-1.1,1.3-1.3,1.3c-2,0.3-4-0.2-6.7,0c0.5-1.8-1.3-1.3-1.3-2.7c-3.9,0.1-5.5-2.1-8.7-2
			c-0.7,0-1.6,1.2-2,1.3c-1,0.3-1-0.7-1.3-0.7c-1.8-0.1-2.6,1.4-3.4,1.3c-1.5-0.2-3.7-2.9-6-3.4c-0.3-4.1,0.9-6.7,0-10.1
			c-0.1-0.4-0.2-1.8,0-1.3c-0.5-1-0.5,0.1-0.7,0c-2.8-1.5-1.2-4.4-5.4-2.7c1.2-1.4-0.3-0.9,0-0.7c-0.6-0.4-0.8-2.3-2-2.7
			c-0.5-0.1-1.6,0.3-2,0c-0.5-0.4-0.4-2.1-2-1.3"/>
		<path class="st15" d="M111.9,54c-0.4,1.7,0.3,2.4,2,2c0.8,2.8-2.2,1.8-2.7,3.4c-0.9-1.3-1.9-2.6-4.7-2c-0.2-2.6,3.6-2.1,2-2.7
			c1-1.4,1.9,0.7,2.7-1.3"/>
		<line class="st15" x1="111.3" y1="53.4" x2="111.3" y2="54"/>
		<path class="st15" d="M111.3,54c0.5-0.2,0.8-0.6,1-1"/>
		<line class="st15" x1="111.3" y1="54" x2="111.9" y2="54"/>
	</g>
	<rect x="138.1" y="63.7" class="st2" width="25.6" height="19.4"/>
	<text transform="matrix(1 0 0 1 138.0835 71.666)" class="st3 st4 st6">WA</text>
	<rect x="114.2" y="136.9" class="st2" width="25.6" height="19.4"/>
	<text transform="matrix(1 0 0 1 114.1655 144.7969)" class="st3 st4 st6">OR</text>
	<rect x="213.5" y="167" class="st2" width="25.6" height="19.4"/>
	<text transform="matrix(1 0 0 1 213.5005 174.9404)" class="st3 st4 st6">ID</text>
	<rect x="153.5" y="241.6" class="st2" width="25.6" height="19.4"/>
	<text transform="matrix(1 0 0 1 153.5215 249.4912)" class="st3 st4 st6">NV</text>
	<path class="st0" d="M963.1,94.9c1.3-0.3,1,3.1-0.7,2c0-0.4,0-0.9,0-1.3C963,95.7,963,95.3,963.1,94.9z"/>
	<path class="st16" d="M943,109c2.5,0.6,0.8,3-1.3,2.7C942,110.7,942.6,110,943,109z"/>
	<g>
		<path class="st16" d="M888.7,163.3c-2.9-3-1.1-7.6-2-13.4c-0.2-1.3-1.4-3.1-1.3-4c0.1-4,2.8-8.7,2.7-12.7c0-1.3-0.6-2.9-1.3-4
			c0.1-1.8,2.4-2.2,3.4-3.4c1.1-1.3,1.4-2.7,2.7-4c-2.2-5-2.7-11.7-0.7-17.4c1.7,0.1,2.1,1.3,2.7-0.7c3.4,8,5.7,17.1,8.7,26.1
			c0.4,1.3,0.8,3.2,1.3,4.7c0.4,1.1,1.7,2.3,2,3.4c0.4,1.5,0,3.3,0.7,4.7c2,4,7.3,5.5,6,10.7c-4,0.3-4.8,3.7-6.7,6
			C900.4,160.2,894.9,162.1,888.7,163.3z"/>
		<path class="st16" d="M887.3,164c-4.6-0.2-7.5,1.5-11.4,2c-1.3-6.9-1.8-17.7-6.7-18.8c1-3.5-2.2-6.3-2.7-9.4c-0.2-1.2,0.7-3,0.7-4
			c0-0.9-0.4-3.3-0.7-4c-0.4-1.2-1.6-2.2-2-3.4c-0.3-0.8,0.2-1.9,0-2.7c-0.4-1.9-1.6-3.6-1.3-5.4c8.7-2.5,17.3-5.1,26.8-6.7
			c0.9,2-0.3,2.4,0,5.4c0.6,2.1,1.4,2.3,1.3,4c-0.1,3.4-4.2,4.9-5.4,7.4c2.6,5.9-1.3,12-1.3,17.4c0,2.5,2,7,2,10.7
			C886.7,159.2,885.5,161.3,887.3,164z"/>
		<path class="st16" d="M897.9,201.5c-0.1-0.7,2.2-1.5,2.2-1.5c2.2,0.3,2.1-1.7,5.4-1.2c-1.8,0.9-2.3,3.6-4.7,3.9
			C900.8,202.7,898,202.3,897.9,201.5z"/>
		<path class="st16" d="M898.4,203.5l-0.5,0.7c0.2,2.1-2,1.1-3.9,2c-0.3,0.2-0.4,1.2-0.7,1.3c-1,0.5-2.4,0.2-3.4,0.7
			c-0.8,0.4-1.3,1.6-2,2c-1.9,1-3.9,1.7-6,2.7c-1.9,0.9-3.4,3.2-6,2c-0.2-4.4,5-3.5,5.4-7.4c3.3-0.2,6-1.1,7.4-3.4
			c3.3,0.1,6-2.8,7.9-4c-0.2,1.2-3.4,3.6-0.3,3L898.4,203.5z"/>
		<path class="st16" d="M926.9,178c-0.1,1.7-1,2.6-2.7,2.7c0.5-2.1-1.2-2-0.7-4c-2.5,1.3-3.7,3.9-5.4,6c-2.4-0.1-2.7-2.2-2.7-4.7
			c-0.6,0.5-1,1.2-1.3,2c-2-1.1-2.9-3.4-4-5.4c-12.5,1.1-21.4,5.9-34.2,6.7c0.4-6,0.8-8,0.7-14.7c8.3-1.7,20.2-4.2,28.1-6
			c2.4-0.6,5.3-3,6-6c0.8,0.1,1.2-0.1,1.3-0.7c2,1.5,2.4,6.1,6,4c-2.5,1.8-4,4.5-5.4,7.4c0.1,0.5,0.7,0.7,0.7,1.3
			c1.1,2,2.4,0.7,4.7,0.7c0.9,1.6,3.3,1.6,2.7,4.7c3.1,0.5,2.9,4.2,6,4.7"/>
		<path class="st16" d="M926.6,177.4c2.3,0.4,6.3-1.2,8-3.5l-1.1-0.9l-1.8,1.3l-0.2,0.9c0,0-2.7,1.1-3.6,0.7c-0.9-0.4-1,0.8-1,0.8
			L926.6,177.4"/>
		<path class="st16" d="M926.2,183.4c0.1,1.5-0.5,2.1-2,2C924.9,184.8,924.4,182.9,926.2,183.4z"/>
		<path class="st16" d="M909.5,175.3c1.3,2.3,1.6,3.9,0.7,6c1.2,1.5,1.6,3.7,1.3,6.7c-1.5,0.7-2.9,1.5-4,2.7
			c-0.5-3.2-2.3-9.3-3.4-14.1C905.7,176,907.4,175.5,909.5,175.3z"/>
		<path class="st16" d="M877.3,182.7c8.7-1.8,17.1-3.9,25.5-6c1.1,4.7,3.1,8.5,3.4,14.1c-4.1-0.6-5.7,4.8-8.7,1.3
			c-0.1,1.8,1.1,1.4,0,2.7c-3.3,0.7-6.2,0.9-8.7,2.7c-0.7,0.5-0.7,1.5-1.3,2c-0.4,0.3-1.6-0.3-2,0c-0.6,0.4-0.2,1.5-0.7,2
			c-0.4,0.4-1.6,0.2-2,0.7c-0.9,0.8-1.3,2.4-2.7,2.7c-0.8,0.1-1.2-0.1-1.3-0.7c-0.6-2.2,2.2-0.9,2-2.7
			C879.5,195.3,877.6,189.8,877.3,182.7z"/>
		<path class="st16" d="M895.2,102.8c0.1-1.1,1.8-0.3,2.7-0.7c1.5-0.7,0.9-3.2,3.3-2.7c-0.4-1.4-1.7-1.9-1.3-4
			c0.6-2.1,1.7-3.7,3.4-4.7c-1.8-1.8,0.7-2.5,0.7-4c-0.1-2.7-2.2-4.7-2-7.4c0,0.1,0.4-2.7,0.7-3.4c0.3-0.6,1.3-0.4,1.3-1.3
			c0.2-2.1-0.8-4.5-0.7-6.7c0.1-1.9,1.4-2.9,2-4.7c0.4-1.3,0.2-3.1,0.7-4.7c0.4-1.3,1-2.3,1.3-3.4c0.3-0.9,1-2.4,1.3-3.4
			c0.4-0.9,0.4-3.1,2-2.7c1.8-0.5,0.9,1.2,1.3,2c0.8,1.2,2.1,1.4,2.7,2.7c3.6-1.3,6-3.8,8.7-6c1.2,0.2,3.1,0,4.7,0.7
			c0.6,0.3,0.8,1.7,1.3,2c0.6,0.4,2.2,0.1,2.7,0.7c0.5,0.6,1.2,3.6,2,6c1.5,4.4,2.6,9.3,4.7,14.7c0.6,1.7,1.9,4.1,2,7.4
			c1.2,1.4,4,1.4,6.7,1.3c0,4.5,2,6.9,4,9.4c0.7-0.7,1.4-1.3,2-2c1.6,0.5,1.8,2.2,3.4,2.7c0,1.3-1.8,0.9-1.3,2.7
			c0.5,1.3,2.2,2.9,2.7,0.7c1.5,1.4-1.8,6.2-4,4c-0.9,2.2-2.2,4.1-4,5.4c-0.7-0.2-0.5-1.3-1.3-1.3c-1.8,0.2-0.7,2.8-0.7,2.7
			c-0.6,1.1-3,0.3-2,2.7c-1.2-0.6-3.3-0.2-4-1.3c-1.1,1.8-1.5,3.5-3.4,1.3c0,1.8,0,3.6,0,5.4c-4.1,1.2-2-3.8-4-4.7
			c-2-1.3-0.9,1.9-1.3,2.7c-0.1,0.1-1.3-0.2-1.3,0c-0.3,1.1,0.7,2,0.7,3.4c0,2.3-1.4,4.6-0.7,7.4c-1.4,1.3-5.7-0.4-4.7,3.4
			c-0.8,2.2-0.8-1.8-0.7-2.7c-2,0.9-3.8,4.1-4.7,0.7c-1.7,2.1,0.7,4.2-0.7,6.7c-0.9,0.5-0.4-2-0.7-2c-0.6-0.1-2.8,1.4-3.4,3.4
			c-0.3,1.1,0.2,2.9,0,4c-0.2,1.1-1.2,1.6-1.3,2c-0.2,1.2,1,1.4,0.7,2.7c-0.2,1-1.7,1.8-2,2.7c-0.7,2.3,0.3,4.7-0.7,5.4
			c-1.8,0.2-2.2-0.9-2-2.7c-2.3,0-2.9-1.6-4-2.7c0.6-4-2.3-7.3-3.4-10.7c-0.8-2.4-0.7-4.1-1.3-6.7c0-0.2-0.7,0-0.7-0.7
			c0-0.3,0.6-1,0.7-0.7c-0.3-0.8-1.7-1.3-2-2c-0.3-0.6-0.6-2.6-0.7-2.7C899.2,113.8,897.7,107.9,895.2,102.8z"/>
	</g>
	<rect x="867.8" y="120" class="st2" width="25.6" height="19.4"/>
	<text transform="matrix(1 0 0 1 867.7686 127.873)" class="st3 st4 st6">VT</text>
	<rect x="890" y="146.7" class="st2" width="25.6" height="19.4"/>
	<text transform="matrix(1 0 0 1 890.0439 154.6016)" class="st3 st4 st6">NH</text>
	<rect x="887.3" y="166.3" class="st2" width="25.6" height="10.4"/>
	<text transform="matrix(1 0 0 1 887.2783 174.2646)" class="st3 st4 st6">MA</text>
	<rect x="914.5" y="91.4" class="st2" width="25.6" height="19.4"/>
	<text transform="matrix(1 0 0 1 914.4688 99.3018)" class="st3 st4 st6">ME</text>
	<rect x="883.4" y="183.4" class="st2" width="25.6" height="19.4"/>
	<text transform="matrix(1 0 0 1 883.4365 191.3154)" class="st3 st4 st6">CT</text>
	<rect x="908.8" y="184.3" class="st2" width="25.6" height="10.4"/>
	<text transform="matrix(1 0 0 1 908.7832 192.2373)" class="st17 st4 st6">RI</text>
	<rect x="908.6" y="184.2" class="st2" width="25.6" height="10.5"/>
	<text transform="matrix(1 0 0 1 908.6299 192.084)" class="st18 st4 st6">RI</text>
	<rect x="885" y="208.3" class="st2" width="30.2" height="10.5"/>
	<text transform="matrix(1 0 0 1 884.9736 216.2012)" class="st17 st4 st6">NYC</text>
	<rect x="884.8" y="208.1" class="st2" width="30.2" height="10.4"/>
	<text transform="matrix(1 0 0 1 884.8203 216.0469)" class="st18 st4 st6">NYC</text>
	<line class="st0" x1="862.6" y1="348.9" x2="862.7" y2="349.7"/>
	<path class="st0" d="M862.7,349.7c0.3-0.1,0.9-0.3,1.6-0.4"/>
	<line class="st0" x1="862.7" y1="349.7" x2="863.2" y2="350.3"/>
	<g>
		<path class="st19" d="M737.6,332.2c-0.9,0.3-1.9,0.6-2.7,1l2.3-0.3c2.8,0.4,4.6-0.5,6-0.7c7.3-1.1,17.5-2,21.4-4
			c-0.3,0.1-0.8-0.6,0-0.7c0,0,1.2,1.3,2,1.3c2.5,0.2,6.9-0.3,9.4-0.7c10-1.3,19.2-4.1,28.8-5.4c2.9-0.4,3.8-1,5.4-1.3
			c4.7-0.9,7.6-0.6,11.4-1.3c8.3-1.6,17.2-4,24.1-5.4c2-0.4,4.5-0.1,6-0.7c0.4-0.2,0.6-1.2,1.3-1.3c-0.1,0,0.7,0.7,1.3,0.7
			c1.2-0.1,2.1-1,3.4-1.3c2.1-0.5,2.7,0,4-1.3c-0.2,0.2-0.9-0.3-0.7-0.7c0.3-0.5,1.1,0.2,1.3-0.7c0.1-0.5-0.6-2.3-0.7-2.7
			c0.1,0.4-0.6,0.8-0.7,0.7c-0.2-1.3,1.3-1.6,0-2.7c-2.4-0.6-3.6,1.2-4.7,0c-0.1,2.8,2.3,2,2.7,2.7c-1.4,1.3-3-1-4.7-1.3
			c-1.1,0.5-1,2.1-2.7,2c-0.6-2.2-0.6-1.4,0.7-2.7c-2.1-1.6-3.6,1.3-4.7-1.3c0.7,0,0.8-0.5,1.3-0.7c-1.6,1.7,1,1.2,1.3,0.7
			c-1-0.6-2.1-1-2-2.7c-1.8,0-4,0.1-5.4,0c0.6,0-1.8-0.3-1.3,0c-0.1-0.1,0.1-1.3,0-1.3c-1.4-0.3-3,0.8-4.7-0.7c2-1,5.7-1.6,6.7,0
			c0.1-0.8-0.1-1.9,0.7-2c0.7,1.2,2,2.8,4,2.5l2.3,1.6c1.4,1.2,2.3,2.3,4.4,1.3c1-2.7-1.9-3.1-3.4-3l-1.9-1.1l-1.5-0.6
			c-1.3-2.1-4.1-2.6-5.4-4.7c1.4,1.3,1.3-0.3,2.7-0.7c0.7,2.6,2.5,2,3.4,2.7c-0.3-0.3-0.7,0.3-0.7,0.7c0.3,1.6,2.5-1.2,2.7,1.3
			c1.3-1.4-0.3-1.3-0.7-2.7c0.7,0,0.8-0.5,1.3-0.7l-0.7-1.3c0-0.9-0.9-0.9-0.7-2c-0.9,0-1.8,0-2.7,0c-0.3-2.3-2-1.9-3.4-2.7
			c-1.7-1.1-3.6-3.9-4.7-4.7c0.3,0.2-1.2,0.7,0-0.7c-2.9-0.3-0.9,1.8-2,2c-1.3-1.4,0.3-1.3,0.7-2.7c-1.2-0.4-2.8-0.3-3.4-1.3
			c0.9-0.9,2.5-0.9,3.4,0l0.8-0.3h0.6c0.2,1.6,2.3,1.2,2,3.4c2.3-1.6,1.6,0.9,2.7,0.7c2.1-0.4,0.9,1.5,4,3.3c-1-0.6,2.4,0.6,2.7,0.7
			c0.3-2.7-0.6-4.3-1.3-6c-4.1,1-4.4-6-9.5-3.2l-1.2,0.4c-0.2-1.6-2.3-0.8-2-2.9c-2.5,0.9-5.2,3.3-6.7,0c1.3-1.6,0.5-5.3,1.3-7.4
			c1.4,1.3,1.3-0.3,2.7-0.7c0-1.6-1.2-2-0.7-4c-2-1.7-3.3,1.1-4,0c0.8-0.1,1-0.7,1.3-1.3c-2.5-0.4-6.2-0.1-6.7-4
			c-0.3,1-0.8,0.1,0-0.7c-3.4,1.2,0-0.4-2.7-0.7c-1.3,1.1-1.1,3.8-2.7,4.7c0-1.7-1.8-0.8-2.7-1.3c0.3,0.1,1-0.4,0.7-0.7
			c-0.8-0.5-3.8-1.2-6-2.7c-1.2,1.8,0.1,4.3-0.7,6.7c0,0.1-1.2,0.5-1.3,0.7c-0.5,0.8-0.4,3-0.7,3.4c-0.6,0.7-2.1,0.6-2.7,1.3
			c-1.3,1.7-0.8,4.7-4,3.4c0.1,1.9,1.3,2.3-0.7,1.3c0.4,3.9-0.8,6.4-2.7,8c-3.3,0.6-4.5-0.8-6-2c-0.2,1.6,0.1,2.6,0.7,3.4
			c-3.2,0-2.6,7.3-2.7,7.4c0,0.2-1.3-0.1-1.3,0c-0.4,0.7,0.2,1.9,0,2.7c-0.3,1.1-1.1,2.1-1.3,2.7c0.6-1.5-1.3,1.2-1.3,1.3
			c-0.3,0.7-0.7,1-0.7,2c0,2.5,1.2,2,1.3,3.4c0,0-1.3-0.1-1.3,0c-0.6,0.8,0.6,2.4,1.3,3.4c-1.5-1.6-3.2,0.6-4.7,1.3
			c-0.6,0.3-1.5-0.3-2,0c-1.3,0.6-1.8,3.3-4,2c-0.9,3.1-2.7,2.9-4,3.4c-1.9,0.7-3.5,0.9-5.4,0c-0.2,1.9-2.1,1.9-2.7,3.3
			c-0.7-1.3-2.2-0.6-3.4-0.7c-1.9-0.1-0.2-0.8-0.7-1.3c0.1,0.2-3.9-0.9-4-3.4c-2.9-0.3-1.7,3.6-4,4l-1.3,1.3c-2.3,0.9-3.1,3.1-5.4,4
			c0,0.9,0.3,1.5,0.7,2c-3.9,0.5-2.6,5.3-4.7,6c0-0.7,0.5-0.8,0.7-1.3c-2.6,0.3-2.4,3.4-4.7,4L737.6,332.2l-0.3-0.7"/>
		<path class="st19" d="M863.2,350.3c0.1,1.2-0.8,1.4-0.7,2.7c-1.6,0.3-1.5-1.2-3.4-0.7c-1.5,2-3.9,3.2-7.4,3.4
			c-1.2,1-1.6,2.9-2.7,4c-0.3-0.8-0.5-2.2-2.7-2.7c2.9,6.2-5.6,7.4-5.4,14.7c-0.9-0.2-1.1-1.2-2-1.3c0,2.2,1.1,3.3,0.7,6
			c-3.3,1-7.2,1.3-10.1,2.7c-1.1-0.5-1.5-1.8-2.7-2.7c-0.8-0.6-2.5-0.7-3.4-1.3c-0.9-0.6-1.7-2-2.7-2.7c-0.5-0.4-1.4-0.2-2-0.7
			c-0.3-0.2-0.4-1.1-0.7-1.3c-0.6-0.5-1.4-0.2-2-0.7c-1-0.7-2.6-2.3-4-3.4c-2.1-1.5-4.8-3.8-6-4c-1.3-0.2-5.9,0.9-8.7,1.3
			c-3.3,0.5-6.8,1.5-10.7,2c-0.2-2.5-1.6-3.8-2.7-5.4c-6.9-1.7-12.4-0.1-18.8,0.7c-2.8,0.3-5.7,0-8,0.7c-1,0.3-2.5,1.5-3.4,2
			c-0.7,0.4-1.5,0.1-2,0.7c-0.9,0.8-1.4,1.2-3.4,2c-1,0.4-0.7,0.1-1.3,0.7c-2.7,2.6-11.7,2.4-17.4,3.4c-2.1,0.3-4.4,0.8-6.7,1.3
			c0-1.8,0-3.6,0-5.4c2.1,0.3,2.6-1,4-1.3c-0.5-2,1.2-2,0.7-4c1.7-2.7,5.5-2.1,8.7-4c1.4-0.8,2.4-2.7,4-4c0.8-0.7,1.2-1.5,3.4-1.3
			c1.3-2.5,3.1-4.5,4.7-6.7c1.3,0,0.9,1.8,2.7,1.3c2.3-1.2,3.6-6.4,7.4-4c2.4-1.6,1.9-6.2,5.4-6.7c0-2.2,1.1-3.3,0.7-6
			c7.6,0,13.7-0.8,21.4-2c8.8-1.4,19.5-3.3,30.2-5.4c4.8-0.9,11.6-2.7,18.1-4c4.2-0.8,8.4-1.2,12.1-2c3.6-0.8,5.8-1.9,10.1-2.7
			c5.3-1,7-0.2,9.4,4.7c-0.9-0.2-1.1-1.2-2-1.3c0,1.1,0.5,1.7,1.3,2c-1.6,1.8-3-2.7-5.4-0.7c0.2,1.6,3.2,0.4,2.7,2.7
			c-1.8,0.4-2.1,0.2-4,1.3c-0.3,0.8-0.8,1.9-2,3.3c-0.8-0.6-1.8-0.9-3.4-0.7c-0.7-1.5-0.4-4-1.3-5.4c-2.6,3.3,1.5,5.6,1.3,8.7
			c2,0.3,2.9-0.3,4-1.3c1.4-1.4,0.6,0.7,2.7,0c1.5-0.5,2.5-1.6,4.7-2c0.5,1.7,1,3.1-0.7,4c2,1,0,1.7,1.3,3.4c3.2-0.4,1.2-4.9,2-6
			c1,0.1,1.9,0.1,2-0.7c1.8,0.9,2,3.3,2,6c-0.7,0-1.3,0-2,0c-0.5,0.9-1.4,4.6-2.7,6.7c-2.3-0.2-5.8,0.9-5.4-2
			c-0.8,0.1-0.6,1.2-0.7,2c-2.5-0.1-1.3-2.2-2-2.7c-2.3-0.3-0.8,3.3-2.7,3.4c-2.9,0.5-5.1-2-6.7-0.7c2.2,2.5,7.1,2.2,10.7,3.4
			c0.5,1.8-1.4,1.3-2,2c-0.8,2.2,2.2,0.5,1.3,2.7c-1.2,0.6-2.1,1.5-2.7,2.7c-1.8-0.9-3.6-1.8-5.4-2.7c-1.1,1.2,1.4,3.5,3.4,4
			c2.5,0.7,5.5-2.1,7.4-0.7c-1-2.1,0.7-2.1,0.7-0.7"/>
		<path class="st19" d="M796.2,418c-0.6-0.3-1.2-0.6-1.3-1.3c-1.4,1.9,0.8,5.9,2.7,6.7c-0.3,1.1-0.6-0.2-1.3,0c-0.7,0.2-1,2-1.3,0.7
			c-1.7,0.2,0.9,1.2,0,2.7c-2.8,0.8-2.6-1.4-4.7-1.3c1.1-4.9-5.2-6.5-2-9.4c-3.9,3.1-0.5-0.8-4,0.7c-1-1.1-0.3-2.2-0.7-3.4
			c-0.4-1.4-1.5-1.6-2-2.7c-0.3-0.6,0.5-1.5,0.7-1.3c-0.6-0.8-2.3-1.7-3.4-2.7c-0.7-0.7-1.7-0.1-2.7-0.7c-1.1-0.7-0.6-3.2-2.7-2
			c1.3-1.3-1.2-2.1-1.3-2.7c-0.1-0.4,0.9-0.8,0.7-1.3c-0.2-0.5-0.9,0.6-0.7,0.7c-0.2-0.1-2.2-3.9-2-2c-0.1-0.6,0.9-1.2,1.3-1.3
			c-0.2-0.9-1.2-0.1-1.3,0.7c-0.8-1.3-2.9-0.5-4-1.3c-0.3-0.3-0.4-1.7-0.7-2c-0.5-0.5-2.3-2.5-3.4-3.3c-0.4-0.3-1.6,0.2-2,0
			c-2.1-1.2-2.6-4-4.7-4.7c0.7-2.1,0.2,0-1.3-2c-0.1-0.1-1.4-1.4-1.3-1.3c-0.2-1.1,0.8-1.2,0.7-2c-0.1-0.3-0.7,0.4-0.7,0.7
			c-0.1-1.6-0.9-1.7,0.7-2c-0.2-0.9-1.2-0.1-1.3,0.7c-1.3-2.2-6.8-0.4-6.7-4c-1.3,1.4-2.9,0-3.4-1.3c0.8-2.1,1.5-4.3,4-4.7
			c-1.8-1.8,2-1.4,2-3.4c4.1-0.8,5.3-0.3,5.4-2.7c0.8-0.5,1.2,0.7,1.3,0.7c0.9,0,0.2-1.1,0.7-1.3c0.1,0,2.7,0.9,2.7-1.3
			c3.6,0.2,7.7-0.9,12.1-1.3c4.8-0.5,10.9-2,12.1,1.3c0.7,0,0.5-0.8,0.7-1.3c2.3,0.8,2.8,3.4,3.3,6c1.3-0.4,3.1-1.3,4.7-1.3
			c0.6,0,1.4,0.7,1.3,0.7c0.7-0.1,1.6-1.2,2-1.3c2-0.5,5.1-0.3,7.4-0.7c1.4-0.3,3.4-0.6,4.7-0.7c0.9,0.2,0.1,1.2-0.7,1.3
			c0.4,1.4,1.3-1,2.7-0.7c0,0,0.5,1.9,0.7,2c0.4,0.3,1.5-0.2,2,0c0.3,0.1,0.9,1.1,1.3,1.3c0.9,0.6,1.8,0.6,0.7,2
			c2.3-0.7,1.1-0.7,4,1.3c0.7,0.5,2.5,1.2,2.7,1.3c0.4,0.4,0.2,1.7,0.7,2c0.9,0.7,3.2-0.2,1.3,2c0.6-0.5,1.5-0.7,2.7-0.7
			c0.1,2.1,4.6,1.9,2.7,4c0.5-0.4,1.1-0.7,2-0.7c-0.6,2.3-2.7,2.3-4,4c-0.4,0.6-0.2,0.9-0.7,1.3c-0.8,0.8-1.3,3.8-2,5.4
			c-0.1,0.3-1-0.4-0.7-0.7c-0.8,0.1-0.4,0.7,0,0.7c-0.8,0.2-2.7,2.6-2.7,1.3c-0.9,0.2,1.2,5.1-2,4.7c0.6,1.7,2.9-1.3,4,0.7
			c-0.2,1.6-1.8,1.5-2.7,0.7c0.4,1.3,1.3,2.5,0,2c-0.8-0.3,0.1,1.3,0,2c-1.8,0-4.5,0.4-2.7-1.3c-2.9,0.9,0.7,2.7-1.3,2
			c-0.7-0.2,0.4,2.2,0,2.7c-0.5,1.1-2.1,1-2,2.7c-1.9,0.1-1.3-2.3-4-1.3c0.5,1.8,1.3,3.2,2,4.7c-1.7-0.7-2.3,2.9-3.4,0.7
			c-0.8,0.1-0.4,0.7,0,0.7c-0.4,2.5-2.8-0.7-2.7,2.7c-3.4,1.3-6.4-1-7.4,2.7"/>
	</g>
	<rect x="780.3" y="381" class="st2" width="25.6" height="19.4"/>
	<text transform="matrix(1 0 0 1 780.3057 388.9297)" class="st3 st4 st6">SC</text>
	<rect x="804.9" y="337.6" class="st2" width="25.6" height="19.4"/>
	<text transform="matrix(1 0 0 1 804.8965 345.5)" class="st3 st4 st6">NC</text>
	<rect x="805.3" y="298.4" class="st2" width="25.6" height="19.4"/>
	<text transform="matrix(1 0 0 1 805.3125 306.335)" class="st3 st4 st6">VA</text>
	<g>
		<path class="st20" d="M617.3,371.7c-0.4,2.8,1.2,3.7,1.3,6c-0.5,2.2-1.9,3.5-4,4c0.6,1.2,2.1,2,0.7,3.4c-1.3,1.1-0.9-0.1-2.7,0
			c0.2,2-0.2,2.3-1.3,1.3c-0.6,3.2-0.6,6.6,0,8c-0.7,2.2-4,1.8-4,4.7c-1.3,1.1-0.9-0.1-2.7,0c0.4,1.9,1,3.5,1.3,5.4
			c-2.4-0.4-2.9,1.1-4,2c0.3,1.3,1.9-1.1,1.3,2c-0.7,1.3-0.9,3.1-2.7,3.4c-0.4,1.5,1.9,2.1-0.7,2c-0.7,1.2,1.3,1.7,1.3,2
			c0,0.4-1.3,1.5-1.3,1.3c0.9,2.7,2.3,1.4,2.7,3.3c0.1,0.8,0.7,2,0.7,2c0.1,1.5-1.2,0.9-1.3,2c-0.1,0.5,1.2,1.6,0.7,2.7
			c-9.1-0.4-18.2,1.6-28.1,1.3c-1.4,0-3.3-0.7-4.7-0.7c-1.4,0.1-2.6,1.1-4,1.3c-5.2,0.7-10.5-0.7-15.4,0c0-3.8,0-7.6,0-11.4
			c-0.8,0.1-1.2-0.1-1.3-0.7c-1.2-0.8-2.4,0-3.4,0c-0.1,0,0.1-1.3,0-1.3c-0.8-0.8-0.9,2.1-2.7,1.3c-2.3-14,0-29.9-1.3-44.2
			c-0.6-7.2-3.4-13.7-3.4-20.1c22-0.1,45.6-1.2,67.7-2.7c4.1-0.3,10.4-2.9,11.4,2.7c0,2-2,3.4-3.4,2c1.8,1.6-2.5,3.7-0.7,5.4
			c3.6,2.5,5.9-0.9,11.4,0c0.8,1.3-1.2,1-1.3,1.3c-0.2,0.6,0.5,1.5,0.7,1.3c-0.9,1.5-1.7,1.4-3.4,2.7c1.1,3.1-0.2,3.1-2,4.7
			L617.3,371.7z"/>
		<path class="st20" d="M626,354.3c2,0.1,0.6-2.6,0.7-2.7c0.1-0.1,1.3,0.2,1.3,0c0.4-1-1.2-2.3,0.7-3.4c8.7-0.2,16.7-1.2,24.8-2
			c-0.4-1,0.8-3.5-0.7-3.4c2.7-0.2,7.2-0.9,11.4-1.3c8.6-1,17.7-1.4,26.8-2c4.9-0.3,9.8-1.6,14.7-2c6.1-0.5,12.6-0.6,18.8-1.3
			c3.4-0.4,6.8-1.7,10.1-2c9.7-1,20.3-1.9,28.8-4.7c1.5,0.7-0.9,3.1,0,5.4c-2.7,0.6-3.4,3.3-4,6c-3.9-1.8-6.6,2-8,4.7
			c-1.8-0.3-1-1.9-2-2c-1.9-0.1-2.2,4.3-4,2.7c-0.7,1.3-0.9,3.2-1.3,4.7c-3.2-1-5.8,3.9-8,6c-5.8-0.2-9,2.2-9.4,7.4
			c-1.4,0.4-1.9,1.7-4,1.3c0,2,0,4,0,6c-17.7,1.5-35.3,4.1-52.9,5.4c-12.5,0.9-24.7,3.2-37.5,4c-4.8,0.3-9.7,0.4-14.7,0.7
			c0.2-1.4,1.8-1.3,2.7-2c-1.1-3.2-1.1-4.8,0.1-7.4c0,0-1.3-1-0.9-1.3c1.8-1.6,2.1-0.8,2.8-2c0.8-1.3-0.6-2.3,0-3.4
			c0.1-0.2,1.8-0.4,2-0.7c0.6-0.5,0.5-1.8,1.3-2.7c1.4-1.5-0.5-1.2-0.7-2.7c-0.2-2.1,2.6-2.7,2-4.7"/>
		<path class="st20" d="M676.9,480.3c-0.9-0.1-2,2.7-2.7,0.7c-1.8-0.5,0.5,3.2-1.3,2.7c-2.2-0.5-1.5-3.8-4.7-3.4
			c0.4-3.6-0.4-5.9-2.7-6.7c-1.4,1.7-1.4,4.8-1.3,8c-1.6,0-3.1,0-4.7,0c-1.4-5.4-1.3-11.4-2-17.4c-0.9-7.5-3.6-14.1-2.7-23.5
			c1.7-16.7,0.5-38.9,1.3-57.6c1.1-2.5-3.1-3.1-1.3-4c15.8-0.5,30.2-2.4,44.9-4c2.5,10.6,6.9,22.2,10.1,33.5
			c1.1,3.8,1.4,7.9,2.7,11.4c0.6,1.8,1.7,4.5,2.7,6c0.6,1,2.2,1.6,2.7,2.7c0.6,1.4-0.8,4,1.3,4.7c-1.3,2.2-1.5,3.6-2,6.7
			c-0.7,4-0.2,6,2,9.4c-0.1,2.1,0.5,4.9-0.7,6c0.1,2.8,2.6,3.2,2.7,6c-10.4,0.5-22.9,2.8-34.2,4c-5.4,0.6-12.9-0.9-14.7,3.3
			c0.5,3.1,3.1,4.1,4.7,6C676,477,677.2,477.3,676.9,480.3z"/>
		<path class="st20" d="M604.1,408.1c0.1-0.8-0.1-1.2-0.7-1.3c0.6-1.2,2.3-1.2,3.4-2c-2.6-5.4,7.1-7.6,4.7-12.7
			c0.9-1.5,1.9-1.5,2-2.7c0.2-3.1,0.6-1.9,2-4c0.3-0.4,1-1,0.7-2c11.9-1.5,25-1.8,36.9-3.4c-0.3,1.4,1,1.3,2,1.3
			c-0.8,16.8-0.5,34-1.3,50.9c-0.8,16.9,3.2,32.8,4.7,47.8v1.2c-1.5,0.4,0.8,1-0.7,2c-1.7-0.7-3.3-1.9-4,0c-2-0.5-2.2-1.3-4-1.3
			c-2.8,0-5.6,2.8-8.7,2.7c-1.3,0.8-1.4,2.6-2.7,3.3c-2.9,0.3-2.3-3-3.4-4.7c-0.5-1.9-2.4-2.5-3.4-4c-0.6-3.7,1.3-5,1.3-8
			c-10.9-1.5-22.8,1.7-34.9,1.3c-1.7-2.6-1.5-6.2,1.3-5.4c-0.8-1-0.6-3-0.7-3.4c-0.3-1.1,0.2-2.3,0.7-3.4c0,0.1,1.1-0.3,0.7-0.7
			c-1.9-1.5,3.4-2.7,1.3-5.4c1.8-1.3,3.4-2.8,4.7-4.7c-0.3-2,2.1-3.8-1.3-3.3c1.4-0.9,2.3-2.1,4-2.7c-0.3-2-2.3-2.2-3.4-3.4
			c1.5-1.4-0.6-2.2,0.7-3.4c-0.2-0.9-1.7-0.6-2.7-0.7c0.7-0.7,1.3-1.4,2-2c-0.1-0.8-1.2-0.6-2-0.7c-0.3-2.1,0.8-2.7,2-3.4
			c-0.2-1.4-2.5-0.6-2.7-2c-1-2.7,2.4-2.5,1.3-6c-0.1-0.3-1.3-1.2-1.3-1.3c-0.2-1.3,0.8-2.3,0.7-2.7c-0.6-1.9-2.5-1.7-2-3.4
			c1-0.8,0.9-2.7,2.7-2.7c-0.1-0.8-1.2-0.6-2-0.7c0.1-1.3,2.2-0.5,2-2"/>
	</g>
	<rect x="570.8" y="383.2" class="st2" width="25.6" height="19.4"/>
	<text transform="matrix(1 0 0 1 570.7813 391.0918)" class="st3 st4 st6">AK</text>
	<rect x="672.4" y="353.9" class="st2" width="25.6" height="19.4"/>
	<text transform="matrix(1 0 0 1 672.4033 361.8281)" class="st3 st4 st6">TN</text>
	<rect x="619.8" y="424.3" class="st2" width="25.6" height="19.4"/>
	<text transform="matrix(1 0 0 1 619.792 432.1709)" class="st3 st4 st6">MS</text>
	<rect x="674.7" y="420.1" class="st2" width="25.6" height="19.4"/>
	<text transform="matrix(1 0 0 1 674.7324 427.9844)" class="st3 st4 st6">AL</text>
	<path class="st0" d="M810.3,499.7c0.9,0.2,1.1,1.2,2,1.3C812,502.7,809.7,501.1,810.3,499.7z"/>
	<line class="st0" x1="774.8" y1="520.5" x2="774.1" y2="520.2"/>
	<line class="st0" x1="774.1" y1="522.2" x2="774.8" y2="521.8"/>
	<line class="st0" x1="773.4" y1="521.8" x2="774.1" y2="522.2"/>
	<line class="st0" x1="774.1" y1="520.2" x2="773.4" y2="520.5"/>
	<g>
		<path class="st21" d="M732.2,466c-1.7-0.2-3.6,1.6-7,0.8c-0.9-2.4-2.4-5.3-4-8c-0.4-0.7-1.1-1.2-1.3-2c-0.5-1.9,0.4-5.1,0-7.4
			c-0.3-1.9-1.9-3.4-2-4.7c-0.3-3.8,0.4-8.1,2.7-10.7c-1.2-1.7-1.1-4.2-2-6c-0.4-0.8-1.5-0.7-2-1.3c-0.5-0.6-2.1-4.6-2.7-6
			c-2.2-5.6-3.6-13.6-5.4-20.1c-2.6-9.4-5.4-17.8-7.5-25.8c14.4-2.2,29.5-2.7,43-5.7c-1,1.9-1.8,4-3.4,5.4c0.4,3.8,5.5,3,6.7,6
			c2.1-0.5,1.3-0.5,3.3,0c2,3,4.5,8.4,7.4,10.7c0.6,0.5,1.5,0.2,2,0.7c1.1,0.9-1,1.4,2,0.7c-0.3,1.3,2.3,1.3,2,2.7
			c0,0-1.1,0.2-0.7,0.7c0,0,0.9-0.5,1.3,0c1.4,1.5,2.5,1.9,5.4,3.4c1.5,5,5.6,7.4,10.1,9.4c0.3,3,2.7,4,2.7,7.4
			c0.5,1.7,2.8,1.7,4,2.7c-1.3,1.2,0.4,1.1,0,0.7c2.2,2.5,2.3,4.6,3.4,8c2.2-0.4,3.1,0.5,4.7,0.7c-0.4,2.6-2.3,4.3-4,2
			c-0.4,2.2,0.5,3.1,0.7,4.7c-3.5-1.2-2.3,6.9-1.3,8c-1.5,0.4-1.7,1.1-2.7,1.3c-0.2,0-1.4-1-2,0c0.6,1.4,3.5,0.6,4,2
			c-0.1,2.5-1,1.7-2.7,1.3c1,5.4-0.6,6.8,1.3,10.7c-3.1-0.1-6.2,0-7.4-2c-1,1.3-2.2,2.3-3.4,3.4c1,1.8,2.2,5.8,0.7,8
			c-2.5,0.1-1.4-3.5-3.4-4C760.7,464.2,746.5,465.6,732.2,466z"/>
		<path class="st21" d="M773.8,521.2c-0.6-5.7,2.2-12.9-0.3-19.4c-2.4-1.2-2.9-4.2-4.7-6c-1.7-0.9-3.3,1.5-3.4,0
			c-3.6-1.4-4.7-5.1-8.7-6c1.2-3.4-2.1-3.1-4-4.7c-1.1-0.9-1-2.6-2-3.4c-0.5-0.4-5.4-2.5-6.7-2.7c-1.5-0.3-4.1-0.4-5.4,0
			c-0.9,0.3-1,1-2,2c0.1-0.1-2.1,1.9-2,1.3c0,0.4,1.6,1.1,2,0.7c-1,1-2.1,0.7-3.4,1.3c-2.1,1-3,2.8-4,4c-1,0.9-1.4-1.3-1.3-1.3
			c-1.3,0.3-1.4,2-2.7,2.7c-1.8,0.9-3.7-0.5-4.7,1.3c-1-2.8-1.9-5.7-5.4-6c0.7-0.9,1.1,0.3,2-1.3c-1.6-1.3-3.5-2.3-6-2.7
			c0.8-1.2,2.1-1.9,2.7-3.4c-0.1-2.1-2.1,1.2-2.7,1.3c-1.2,0.3-3.4-2-3.4,1.3c-2.3-0.2-3.2-1.7-6-1.3c3.5-3.2-3.4-3.5-5.4-4
			c-1.8,2.7-6,2.9-9.4,4c0-1.1-1.1-2.2-1.3-4.7c-2-0.5-0.6,2.3-1.3,2.7c-0.2,0.1-0.9-1.3-1.3-1.3c-1.4-0.1-0.6,2.1-2,4h-1.3
			c-0.5-1.1-3.6-3.1-1.3-4.7c-0.9-2.5-4.5-2.2-4.7-5.4c0.9-4.1,5.3-2.3,8-2.7c12.3-1.8,27.4-3.3,40.2-4.7c0.9,1.8,1.8,3.6,2.7,5.4
			c17.5,0,35.2-3.2,50.9-2.7c-0.1,1.7,0.3,2.8,1.3,3.3c5.8,0.3,0.5-8,2.7-10.1c1.9-0.9,5.3,1.6,9.4,0.7c0.8,2-0.4,5,2.7,6
			c0,4.2,2.4,7.7,4,11.4c3.6,8,8.4,16.2,14.7,22.1c-0.3,1-0.9-0.3-2,0c-0.6,3.1,1.2,6,2.7,8.7c1.3,2.4,3.2,5.1,4.7,7.4
			c1.2,1.7,1.8,3.1,3.4,4.7c2.1,2.2,3.2,7.6,6,10.1c0.1,1,0.1,1.9-0.7,2c3.5,1.5,4.3,2.6,6,8c1.2,3.8,2.6,16.1,1.3,21.4
			c-0.4,1.6-1.8,3.2-2,4.7c-0.2,1.6,0.8,3.2,0.7,4.7c-0.2,1.7-1.9,2.4-1.3,4c-4-0.7-4.9,4.6-8.7,2l-0.3-0.3l-0.3,0.3
			c-0.1-2.1-1.5-2.9-4-2.7c-1.7-2.2-3.5-4.3-5.4-6.7c-1.4-1.8-1.5-3.3-4-4c-1.9-0.6-3.7,0.5-5.4-0.7c-1.4-2.4-3-4.6-3.4-8
			c-0.2-1.4-1.8-1.3-2.7-2c0.2-2.5,1.6-3.8,2.7-5.4c-3.2-0.5-2.8,2.6-4,4c-2.2-0.9-2.7-6.4-1.3-8.7c-0.8-1.2-2.7,1.7-4.7,0
			c-1.9,0.9,2.1,1.4,1.3,3.4c-4.8-1-6.4-5.2-8-9.4c-0.4-2.1-3.2-1.8-3.4-4c2.3,0.2,1.5-2.9,2-4c0.6-1.2,2.6-1.8,2-3.3
			c-0.9-3.6-3.2-1.4-6.4-3.4l-0.3,0.7c1.3,0.3,0.1,3.1,2.7,2c-0.5,0.6-0.7,1.5-0.7,2.7c-2.5,0.7-1.9-1.7-4-1.3
			c-0.6-1.9,0.9-1.7,0.7-3.4L773.8,521.2z"/>
	</g>
	<rect x="740.1" y="421.4" class="st2" width="25.6" height="19.4"/>
	<text transform="matrix(1 0 0 1 740.0986 429.3525)" class="st3 st4 st6">GA</text>
	<rect x="789.9" y="518.2" class="st2" width="25.6" height="19.4"/>
	<text transform="matrix(1 0 0 1 789.8584 526.0713)" class="st3 st4 st6">FL</text>
	<path class="st0" d="M595.8,505.8c-1.4,1.5-2-0.9-4-0.7C592.5,503.4,595.9,503.3,595.8,505.8z"/>
	<path class="st0" d="M606.5,509.1c0.7,0.2,0.5,1.3,1.3,1.3C607.3,512.3,604.9,509.9,606.5,509.1z"/>
	<g>
		<path class="st22" d="M528.1,409.2c-2.2-0.6-0.9,2.2-2.7,2c-2.1,0.3-2.6-1-4-1.3c-3,0.1-4.6,3.4-6.7,0.7c-2.2,1.3-4.6,2.6-6.7,4
			c-2.1-0.8-3.7-2.1-5.4-3.4c-1.6-1.6-1.2,1-3.4,0.7c-0.2-1.6-2.1-1.5-2.7-2.7c-1.2,1.7-3.9,1.9-3.4,5.4c-2.1-0.5-0.9-1.8-0.7-3.4
			c-1.9-0.1-3.4,0.2-4,1.3c-1.6-1.1-2.5-2.8-4.7-3.3c-2.2-1.8-1.9,3.1-5.4,2c1.1-4-4.1-1.7-2.7-6c-2.8-0.1-5.6-0.2-6.7,1.3
			c-4.7-1.5-9.2-3.2-13.4-3.4c0.9-3.8-2.5-3.3-2.7-6c-1.4,3-2.2,1.3-4,1.3c-0.4,0-0.8,0.6-0.7,0.7c-2.9-0.5-4-4.1-6.7-4.7
			c0.2-13.9,0.7-27.4,1.3-40.9c-4.1-3.8-10.7-1.5-16.8-2c-10.2-0.9-25.8-2-36.7-2.5c0.7-4.4,0.7-6.5,1.2-9.5
			c47,2.6,96.1,3,146.1,2.7c-1.1,12.7,3.2,23.2,4,34.8c0.9,12.4-0.7,24.7,0,38.9C535.5,414.8,532.6,411.3,528.1,409.2z"/>
		<path class="st22" d="M603.2,429.4c1.7,0.1-0.2,1.5,0,2.7c0.1,0.9,1.3,1.9,1.3,2c0,0.8-1.5,1.2-1.3,2c0.2,0.8,1.2,0.9,1.3,1.3
			c0.2,0.6-0.3,1.5,0,2c0.6,1.3,1.8,2.1,2.7,3.4c-0.5,1.8-3.1,1.4-3.4,3.3c0.5,0.6,1.2,1,2,1.3c-0.2,0.8-3.8,1.9-0.7,2
			c-1.3,1.8-2.8,3.4-4.7,4.7c1.2,2.6-2.8,5.5-2.7,6.7c0.1,1.1,0.8,1.5,0.7,2.7c0,0.1-1.3-0.1-1.3,0c-0.6,0.7,1.2,1.8,0.7,2.7
			c-0.5,0.4-1.1,0.7-2,0.7c0.7,2.3,2,5.3,0,6.7c12.1-1.1,24.9-1.4,36.9-2.7c-0.9,1.7-0.9,4.4-2,6c1.3,4.4,4,6.3,6,10.7
			c-0.8,2.3-2-0.4-3.4-0.7c-1-0.2-2.4,0.4-3.3,0c-0.8-0.3-2.4-3.3-4.7-2.7c-2.5,1.3-4.2,3.4-4.7,6.7c3.2,3.5,11.2-0.4,12.7-0.7
			c2.4,1.1-1.7,1.4-1.3,2.7c0.9,1.6,3,1.9,4.7,2.7c1.9-0.5,0.4-4.5,3.4-4c-0.8,2.8,1.4,2.6,1.3,4.7c-3.1-0.3-4.5,1.1-3.4,3.4
			c-3.2-0.3-0.6,1.2-2.7,2c-0.8,2.5,2.8,1.7,4,2.7c0.4,0.3,0.2,1.8,0.7,2c0.3,0.1,1.2-1,2-0.7c0.4,0.2,1.5,2.3,4,1.3
			c1.3,1.6,2.8,2.9,1.3,5.4c-1.6-0.4-2.4-1.6-3.3-2.7c-0.7,0.4-0.7,1.5-2,1.3c0.1-1.2-0.8-1.4-0.7-2.7c-2.1,1-3.1-0.9-4-1.3
			c-0.5-0.2-1.6,0.3-2,0c-0.4-0.3-0.3-1.7-0.7-2c-1.1-0.9-2,0.2-4-0.7c-1.3-0.5-2.5-2.5-4.7-2c-0.8,3.2,2.6,2.4,3.4,4
			c1.1,1.6-1.3,1.8-1.3,2c-0.2,1,2.2,3.5-0.7,4c-2.3,0.7-1-2.1-1.3-3.4c-0.7-0.4-2.8,0.6-3.4,0c-0.7-0.6,0.4-1.6-2-0.7
			c-1.8,0.7-2.9,1.7-3.4,4.7c-1.9,0-5.9-2.5-7.4-1.3c-0.6-3.4-4.2-3.8-3.4-8.7c-1.4-0.3-1.3,1-1.3,2c-2.1,0.3-2.4-1.2-4.7-0.7
			c-0.5-2.9-2.2-4.5-6-4c0-0.7,0-1.3,0-2c-2.4,0.7-4.1,2.1-6.7,2.7c-1.9,0.9,2.1,1.4,1.3,3.3c-1.4-1-2.2,1.2-3.3,1.3
			c-1.1,0.1-3.6-1.1-5.4-1.3c-3.2-0.4-4.8-0.9-8-2c-1.8-0.6-3-2-5.4-1.3c1.4-2.6,0.1-5.1-1.3-6.7c-0.3,1.7-2.3,5.3-1.3,6
			c-1.4,2.2-6.2,0.9-8.7,2c-0.9-1.5,1.5-1.5,2-2.7c0.4-0.9-0.3-2.4,0-3.4c0.2-0.6,1.2-1.1,1.3-2c0.2-1.9-1.2-2.9-1.3-4.7
			c-0.1-1.2,0.4-4.2,0.7-5.4c0.4-1.5,2.3-3,2.7-4.7c0.7-3.2,0.4-7.9,0-9.4c-0.3-1.1-2.2-1.8-2.7-2.7c-0.8-1.3-0.3-5-2.7-5.4
			c0.7-5.6-2.7-7.2-4.7-10.1c0.5-7.9-0.8-14-0.7-21.4c12.4-0.2,26.2-1.3,38.9-2c4.3-0.2,8.8-0.3,12.7,0
			C600.8,431.2,601.9,430.7,603.2,429.4z"/>
		<path class="st22" d="M491.9,545.3c-2-0.9-5.3-0.9-7.4,0c0.8,1.6,1.8,0.6,2.7,1.3c0.7,0.5,1.1,1.5,2,2.7c-0.2,2.7-2,3.8-2,6.7
			c-4,0.9-5-1.3-7.4-2c-0.1,2.1,1.8,2.2,1.3,4.7c2.4,0.2,3.2,1,5.4,0c-0.9,1.8-0.8,4.6-2.7,5.4c-1.4,3,1.5,4.1,2,6
			c0.5,1.8,0.2,4.2,0.7,6c0.4,1.6,1.7,2.6,2,4c0.6,2.4-0.5,5.1,1.3,6.7c0.3,1.6-3.1-0.4-2,2c-3.3,0-4.3-3.9-7.4-4.7
			c-2.9-0.8-5.9,0.5-10.1,0c-2.4-1.9-4-4.5-8.7-4c-0.9-2.7-3.8-3.4-7.4-3.4c-0.7-0.3-0.2-1.4-0.7-2c-0.1-0.2-1.3-0.7-1.3-0.7
			c-0.6-1.4-0.2-3.3-0.7-4.7c-1-3-2.9-5.3-4.7-7.4c-0.5-1.4,0.7-1.8,0.7-2.7c0-1.5-1.2-1.7-1.3-2.7c-0.2-1.6,0.9-3.4,0-5.4
			c-0.7-2-2.7-2.6-4.7-3.4c-1.7-3.7-4.4-6.3-6-10.1c-0.6-1.2-2.3-1.2-3.4-2c-0.5-1.5-1-2.5-1.3-5.4c0-0.1-0.3-1.8-1.3-3.4
			c-0.2-0.3-1.2-0.4-1.3-0.7c-0.2-0.4,0.2-1,0-1.3c-0.6-1.1-0.9-2.2-2-3.4c-0.6-0.6-0.7-3-1.3-4.7c-1.2-3-3.8-4.7-6-7.4
			c-1-1.2-2.9-3.3-4.7-4.7c-0.3-0.2-1-0.4-0.7,0c-2.2-2.3-2.4-3.6-4-5.4c-2.8,0.7-7,0.4-11.4-0.7c-2.4-0.6-5.1-3-6.7,0.7
			c-2.2-0.9-4.8,0.4-6,2c-1.1,1.4-2,4.5-3.4,7.4c-1.1,2.5-3.8,4.9-6,6.7c-3.8,0.1-6.6-2.8-9.4-4.7c-0.9-0.6-1.4-1.7-2-2
			c-1.4-0.8-3.4-0.4-4.7-1.3c-2.8-2-4.2-6.1-8-6.7c-0.1-3.9-4.5-5.8-3.4-10.7c0.4-1.5,0.5-2.9-0.7-5.4c-0.1-0.3-0.4-1.5-0.7-2
			c-0.1-0.2-1.3-0.5-1.3-0.7c-0.3-0.7,0.4-2,0-2.7c-0.6-1.1-1.3-1.9-2-2.7c-1-1.1-2.1-2.4-3.4-3.4c-1-0.7-2.9-0.9-4-2
			c-0.8-0.8-1.3-2.4-2-3.4c-0.8-1.1-1.9-1.7-2.7-2.7c-2.9-3.6-4.7-6.8-9.4-8.7c-0.1-1.9-1.2-2.8-1.3-4.7c-1.7-2.6-5.9-2.6-5.4-7.4
			c21.1,2.4,42.7,4.3,65,5.4c0.9-0.2,1.1-1.2,2-1.3c1.9-33.2,4.4-65.7,6.7-98.5c17,1.3,35.1,1.5,52.3,2.7
			c0.1,14.6-0.2,28.9-1.3,42.2c3.1,0.7,4.5,3.1,6.7,4.7c3.4,0.4,5.4-0.8,7.4,0c1.1,0.9,0.2,3.8,1.3,4.7c5.2,0.2,9.8,0.9,12.7,3.4
			c2.5-1.6,2.8-1.8,6.7-1.3c-0.3,2.1,0.6,3,2.7,2.7c-0.2,1.6,0.1,2.6,0.7,3.3c2.4,0,3-1.9,4.7-2.7c1.6,0.6,2.7,1.7,3.4,3.4
			c1.9,0.1,3.4-0.2,4-1.3c1.5,0.3-0.1,3.7,2,3.4c1.5,0.1,1.8-2.2,2.7-3.4c0.2-0.3,0.8-0.6,0.7-1.3c2.6,1,3.3,2.8,6.7,1.3
			c0.9,2.2,3.8,2.5,5.4,4c1.3-1.4,3.4-2,4.7-3.4c2-0.6,2.1-0.6,4,0c1.7-0.3,2.8-1.3,4-2c1.3,0.8,5.2,2.9,6.7,0c2.9-0.8,5,3.2,6.7,4
			c0.5,0.3,1.5-0.3,2,0c0.3,0.1,0.5,1.3,0.7,1.3c2.1,0.7,5.2-0.1,6,2.7c1.9-0.8,4.1-0.8,6,0c0.9,11,0.9,22.8,1.3,34.2
			c1,1.6,2.7,2.7,4,4c-0.3,2.1,1.5,2.6,0,4c0.4,0.8,0.7,1.8,1.3,2.7c0.5,0.7,1.7,1.4,2,2c0.3,0.5-0.3,1.5,0,2c1.3,2.2,3,2.6,2.7,6.7
			c0,0.1-0.8,0.1-0.7,0.7c0.1,0.5,0.6,2.5,0.7,4c-3.1,3.3-4,10.6-2,15.4c-1.5,2.3-6.9,5.5-3.4,8.7c-1.7,1-3,0.8-4.7,1.3
			c-1.8,0.6-3.3,2.3-4.7,2.7c-1.1,0.3-1.2-0.7-2-0.7c-0.6,0.1-3.1,1-4.7,0.7c0.9-0.9,0.7-2.9,0.7-4.7c-2.4-1.9-2.9,1.8-4,2
			c-1.3,0.3-1.5-2.6-2.7-0.7c0,3.6,1.5,5,2.7,8.7c-2.2,0.5-2.4,3-4.7,3.4c-0.2,5.9-6,6-8.7,9.4c-2.5-0.5-3.2,0.8-5.4,0.7
			c-0.9,0.2-0.6,1.7-0.7,2.7c-1.5,0.3-1-1.2-2-1.3c0.6,0.1-2.5,1.5-3.4,0.7c-0.1-0.1,0.2-1.3,0-1.3c-1.3-0.5-3.7,2.2-4-1.3
			c-2,0.6,0.4,2.2,0,3.4c-2.9,0.4-1.5-3.4-4.7-2.7c-1.7,1.5,3.8,4.3,1.3,6.7c0.6-0.5,1.5-0.7,2.7-0.7c-2,3.1-4.7,2.6-6.7,0
			c-1.5,1.9,1.2,4.6-1.3,6c-0.9-2.9-4.5,2.2-6.7,0c0.7,2.1-0.7,3.7,2,4.7c-0.2-1.1,0.6-1.2,0.7-2
			C495.6,541.9,491.6,543.2,491.9,545.3z"/>
	</g>
	<g>
		<g>
			<path class="st23" d="M296.9,241c37.4,4.2,75.4,7.7,114.6,10.1c-1.9,29.2-2.7,59.4-4.7,88.5c-41-2.6-81.4-6.2-121.3-10.7
				c-0.1-3.4,0.2-7.2,0.7-10.7c3.1-23.9,6.7-51,10.1-75.1C296.2,242.1,296.1,241.1,296.9,241z"/>
			<path class="st23" d="M388.1,350.9c-1,8.2-0.8,17-1.3,25.5c-1.1,16.6-2.1,33.1-3.4,49.6c-0.6,8-0.9,15.9-2.7,23.5
				c-22.2-1.4-44-3.4-65.7-5.4c-2.3,0.9,1.8,4.4,0,4.7c-9.5-1.2-19.7-1.7-28.8-3.4c-2,2.3-1,7.5-2.7,10.1c-4.4-1-10-0.7-14.1-2
				c5-41.5,10.7-82.3,15.4-124c34.3,3.7,68.1,7.9,104.6,9.4L388.1,350.9z"/>
			<path class="st23" d="M166.9,411.3c0.2-1.6,2.3-1.2,2-3.4c0.7-0.7,3.2,0.9,4,0c0.1-0.1,1.1-3.2,1.3,0c1-0.6,0-3.5,0.7-4
				c0.4-0.3,2,0.6,2,0.7c-0.1-0.9-1.9-2-2.7-2.7c-0.8-0.7-1.2-1.7-2.7-2c0.9-2.9,0.1-4.5,0.7-6.7c0.2-1.7,3,0.9,3.4,0.7
				c0.4-0.3-1.3-1.4-1.3-1.3c-0.2-0.9,2.9-4.7,3.4-6c0.6-1.9-0.1-4.2,0.7-5.4c2.4-3.8,5.5-2.4,8-6.7c-0.1-1.9-1.4-2.6-3.4-4
				c-0.1-6.9-5.4-12.1-0.7-16.8c-0.2-7.4,0.2-15.2,0.7-20.1c3.1-1,2.8,0.5,6,0.7c1.1,0.5-0.2,3.3,2,2.7c1.8,1.7,2.1-1.3,3.4-2.7
				c1-1.1,1.3-1.8,2-5.4c0.6-3.3,1.4-9.1,2-12.7c9.3,1.6,18.5,3.8,28.1,5.4c1.1,0.2,2.3-0.2,3.4,0c15.9,2.6,36,5.6,54.3,8
				c-5.7,41-10.2,83.2-16.1,124c-12.6-1.3-24.1-3.6-36.9-4.7c-0.6-0.3-0.6-1.6,0-1.3c-1.1-0.5-6.2-0.5-4.7-3.4
				c-1.4,1.6-3-0.5-4.7-1.3c-1.4-0.7-4.2-1.5-4.7-2c-0.1-0.1,1-1.2,0.7-1.3c-0.7-0.4-0.5,0.6-0.7,0.7c-0.8,0.2-0.3-0.6-0.7-0.7
				c-3.3-1.2-6.6-3.1-9.4-4.7c-2.4-1.4-4.7-2.7-6.7-4.7c-0.4-0.4-1.5,0.2-1.3-0.7c0,0.2,1.1-0.4,0.7-0.7c0,0-2.7,1.3-3.4,0
				c0-0.1,0.9-1.2,0.7-1.3c-0.6-0.3-1.6,0.7-3.4,0c-1.3-0.5-2.2-2-3.4-2.7c-0.7-0.4-1.4-0.3-2-0.7c-2.2-1.3-6.1-3.3-8.7-5.4
				c-0.4-0.3-1.5,0.2-1.3-0.7c0,0.2,1.1-0.4,0.7-0.7c-0.7-0.4-0.5,0.6-0.7,0.7c-0.6,0.1-4.2-2.7-5.4-3.4
				C171,413.5,168.7,412.9,166.9,411.3z"/>
			<path class="st23" d="M217.8,206.2c15.8,2.5,30.9,5.7,47.6,7.4c-0.8,7.9-1.8,15.6-3.4,22.8c11.7,0.8,21.9,3.1,33.5,4
				c-4.1,28.9-7.3,58.9-11.4,87.8c-29.7-3.1-57.6-8.1-85.8-12.7C204.9,279.1,211.6,242.9,217.8,206.2z"/>
		</g>
		<path class="st23" d="M382.2,449c-0.6,0.3-0.8,1-1.5,1.2c-22.4-1.1-43.9-3-65-5.4c-0.5,4.8,3.7,4.8,5.4,7.4
			c0.1,1.9,1.2,2.8,1.3,4.7c4.7,1.9,6.5,5.1,9.4,8.7c0.8,1,1.9,1.6,2.7,2.7c0.7,1,1.2,2.6,2,3.4c1.1,1.1,3,1.3,4,2
			c1.3,0.9,2.3,2.2,3.4,3.4c0.7,0.8,1.4,1.6,2,2.7c0.4,0.7-0.3,1.9,0,2.7c0.1,0.2,1.2,0.4,1.3,0.7c0.3,0.5,0.5,1.8,0.7,2
			c1.2,2.4,1,3.8,0.7,5.4c-1.2,4.9,3.2,6.9,3.4,10.7c3.9,0.6,5.3,4.7,8,6.7c1.3,0.9,3.2,0.6,4.7,1.3c0.6,0.3,1.1,1.4,2,2
			c2.8,1.9,5.6,4.8,9.4,4.7c2.2-1.8,4.9-4.2,6-6.7c1.3-2.8,2.3-6,3.4-7.4c1.2-1.6,3.8-2.9,6-2c1.6-3.7,4.3-1.2,6.7-0.7
			c4,1,7.9,1.3,10.7,0.8l0.6-7.2c0,0,1.2-2.2-0.9-5.8c-2.2-3.7-1.2-8-4-9.2c-2.8-1.2-6.1-3.4-9.5-5.5c-3.4-2.2-7.4-2.8-9.8-4.3
			C382.7,466.3,382.2,449,382.2,449z"/>
	</g>
	<rect x="240.7" y="269.5" class="st2" width="25.6" height="19.4"/>
	<text transform="matrix(1 0 0 1 240.6704 277.415)" class="st3 st4 st6">UT</text>
	<rect x="339.6" y="287.3" class="st2" width="25.6" height="19.4"/>
	<text transform="matrix(1 0 0 1 339.5615 295.2051)" class="st3 st4 st6">CO</text>
	<rect x="220.8" y="375.7" class="st2" width="25.6" height="19.4"/>
	<text transform="matrix(1 0 0 1 220.7871 383.6318)" class="st3 st4 st6">AZ</text>
	<rect x="322.8" y="383" class="st2" width="25.6" height="19.4"/>
	<text transform="matrix(1 0 0 1 322.8179 390.9561)" class="st3 st4 st6">NM</text>
	<rect x="351.5" y="476" class="st2" width="42.9" height="19.4"/>
	<text transform="matrix(1 0 0 1 356.3862 481.3008)"><tspan x="0" y="0" class="st3 st4 st5">Western</tspan><tspan x="8.3" y="9.2" class="st3 st4 st6">TX</tspan></text>
	<rect x="446.8" y="446.7" class="st2" width="42.9" height="19.4"/>
	<text transform="matrix(1 0 0 1 452.7236 451.9551)"><tspan x="0" y="0" class="st3 st4 st5">Eastern</tspan><tspan x="7.3" y="9.2" class="st3 st4 st6">TX</tspan></text>
	<rect x="481.3" y="370.1" class="st2" width="25.6" height="19.4"/>
	<text transform="matrix(1 0 0 1 481.3086 378.0576)" class="st3 st4 st6">OK</text>
	<rect x="567.4" y="457" class="st2" width="25.6" height="19.4"/>
	<text transform="matrix(1 0 0 1 567.3545 464.9189)" class="st3 st4 st6">LA</text>
	<rect x="625.4" y="122.7" class="st2" width="25.6" height="19.4"/>
	<text transform="matrix(1 0 0 1 625.3849 130.6119)" class="st3 st4 st6">MI</text>
</g>
<g id="Layer_2">
	<path class="st14" d="M167.8,313.6c0,0,9.4,1,29.9,3.2c0,0-1.2,3.9-1.9,8c-0.7,3.9-0.6,8.2-3.4,11.4c-2.7,0.2-1.8-3.1-4-3.4
		c-2.1,0.1-3.8-1.6-5.4,0c-1.8,0.4-1.3,2-1.3,3.4c0,1.1,0.1,1.6,0,2.7c-0.2,2.4-0.5,4.9-0.7,7.4c-0.2,2.2,1.1,4,0.7,6
		c-0.3,1.7-3,2-2,4c-5.1-7.1-10.4-14.8-15.9-22.8c-9.7-14.2-5-7.7-14.9-22"/>
	<rect x="146.2" y="317.6" class="st2" width="57.9" height="17.3"/>
	<text transform="matrix(1 0 0 1 157.4721 321.1823)"><tspan x="0" y="0" class="st3 st4 st24">Clark County</tspan><tspan x="8.7" y="9.2" class="st3 st4 st6">NV</tspan></text>
</g>
</svg>
